<svg xmlns="http://www.w3.org/2000/svg" viewBox="0 0 1200 800" width="1200" height="800">
  <defs>
    <pattern id="hcwl-hex" width="90" height="51.96" patternUnits="userSpaceOnUse">
      <g fill="none" stroke="#1f4376" stroke-width="1.1" stroke-opacity="0.07">
        <polygon points="75,25.98 60,51.96 30,51.96 15,25.98 30,0 60,0"/>
        <polygon points="30,0 15,25.98 -15,25.98 -30,0 -15,-25.98 15,-25.98"/>
        <polygon points="120,0 105,25.98 75,25.98 60,0 75,-25.98 105,-25.98"/>
        <polygon points="30,51.96 15,77.94 -15,77.94 -30,51.96 -15,25.98 15,25.98"/>
        <polygon points="120,51.96 105,77.94 75,77.94 60,51.96 75,25.98 105,25.98"/>
      </g>
    </pattern>
    <radialGradient id="hcwl-glow" cx="50%" cy="8%" r="82%">
      <stop offset="0%" stop-color="#fdf7ea" stop-opacity="0.55"/>
      <stop offset="55%" stop-color="#fdf7ea" stop-opacity="0"/>
    </radialGradient>
    <radialGradient id="hcwl-vig" cx="50%" cy="46%" r="80%">
      <stop offset="50%" stop-color="#1f4376" stop-opacity="0"/>
      <stop offset="100%" stop-color="#1f4376" stop-opacity="0.06"/>
    </radialGradient>
  </defs>
  <rect width="1200" height="800" fill="#f5ede0"/>
  <rect width="1200" height="800" fill="url(#hcwl-hex)"/>
  <rect width="1200" height="800" fill="url(#hcwl-glow)"/>
  <rect width="1200" height="800" fill="url(#hcwl-vig)"/>
</svg>
