<svg xmlns="http://www.w3.org/2000/svg" viewBox="0 0 512 512" width="512" height="512"><defs><radialGradient id="cg" cx="50%" cy="44%" r="70%"><stop offset="0%" stop-color="#4f9fd6" stop-opacity="0.14"/><stop offset="70%" stop-color="#4f9fd6" stop-opacity="0"/></radialGradient><radialGradient id="v" cx="50%" cy="44%" r="80%"><stop offset="52%" stop-color="#03040799" stop-opacity="0"/><stop offset="100%" stop-color="#03040799" stop-opacity="0.45"/></radialGradient></defs><rect width="512" height="512" fill="#10243a"/><g fill="none" stroke="#4f9fd6" stroke-width="4" stroke-opacity="0.5"><polygon points="292.0,256.0 274.0,287.2 238.0,287.2 220.0,256.0 238.0,224.8 274.0,224.8"/><polygon points="332.0,256.0 294.0,321.8 218.0,321.8 180.0,256.0 218.0,190.2 294.0,190.2"/><polygon points="372.0,256.0 314.0,356.5 198.0,356.5 140.0,256.0 198.0,155.5 314.0,155.5"/><polygon points="412.0,256.0 334.0,391.1 178.0,391.1 100.0,256.0 178.0,120.9 334.0,120.9"/><polygon points="452.0,256.0 354.0,425.7 158.0,425.7 60.0,256.0 158.0,86.3 354.0,86.3"/><polygon points="492.0,256.0 374.0,460.4 138.0,460.4 20.0,256.0 138.0,51.6 374.0,51.6"/><polygon points="532.0,256.0 394.0,495.0 118.0,495.0 -20.0,256.0 118.0,17.0 394.0,17.0"/><polygon points="572.0,256.0 414.0,529.7 98.0,529.7 -60.0,256.0 98.0,-17.7 414.0,-17.7"/><polygon points="612.0,256.0 434.0,564.3 78.0,564.3 -100.0,256.0 78.0,-52.3 434.0,-52.3"/></g><rect width="512" height="512" fill="url(#cg)"/><rect width="512" height="512" fill="url(#v)"/></svg>