<svg xmlns="http://www.w3.org/2000/svg" viewBox="0 0 512 512" width="512" height="512"><defs><radialGradient id="cg" cx="50%" cy="44%" r="70%"><stop offset="0%" stop-color="#a877e0" stop-opacity="0.14"/><stop offset="70%" stop-color="#a877e0" stop-opacity="0"/></radialGradient><radialGradient id="v" cx="50%" cy="44%" r="80%"><stop offset="52%" stop-color="#03040799" stop-opacity="0"/><stop offset="100%" stop-color="#03040799" stop-opacity="0.45"/></radialGradient></defs><rect width="512" height="512" fill="#241033"/><polygon points="256,256 716.0,256.0 700.3,375.1" fill="#a877e0" fill-opacity="0.3"/><polygon points="256,256 654.4,486.0 581.3,581.3" fill="#a877e0" fill-opacity="0.3"/><polygon points="256,256 486.0,654.4 375.1,700.3" fill="#a877e0" fill-opacity="0.3"/><polygon points="256,256 256.0,716.0 136.9,700.3" fill="#a877e0" fill-opacity="0.3"/><polygon points="256,256 26.0,654.4 -69.3,581.3" fill="#a877e0" fill-opacity="0.3"/><polygon points="256,256 -142.4,486.0 -188.3,375.1" fill="#a877e0" fill-opacity="0.3"/><polygon points="256,256 -204.0,256.0 -188.3,136.9" fill="#a877e0" fill-opacity="0.3"/><polygon points="256,256 -142.4,26.0 -69.3,-69.3" fill="#a877e0" fill-opacity="0.3"/><polygon points="256,256 26.0,-142.4 136.9,-188.3" fill="#a877e0" fill-opacity="0.3"/><polygon points="256,256 256.0,-204.0 375.1,-188.3" fill="#a877e0" fill-opacity="0.3"/><polygon points="256,256 486.0,-142.4 581.3,-69.3" fill="#a877e0" fill-opacity="0.3"/><polygon points="256,256 654.4,26.0 700.3,136.9" fill="#a877e0" fill-opacity="0.3"/><rect width="512" height="512" fill="url(#cg)"/><rect width="512" height="512" fill="url(#v)"/></svg>