<svg xmlns="http://www.w3.org/2000/svg" viewBox="0 0 512 512" width="512" height="512"><defs><linearGradient id="sky" x1="0" y1="0" x2="0" y2="1"><stop offset="0%" stop-color="#dff0ff"/><stop offset="100%" stop-color="#f4fbe8"/></linearGradient></defs><rect width="512" height="512" fill="url(#sky)"/><path d="M0 300 Q256 250 512 300 V512 H0 Z" fill="#8bc36a"/><path d="M0 380 Q256 340 512 380 V512 H0 Z" fill="#66a84f"/><rect x="68" y="400" width="4" height="46" fill="#3f7a3c"/><circle cx="79.0" cy="400.0" r="7" fill="#ffffff"/><circle cx="72.8" cy="408.6" r="7" fill="#ffffff"/><circle cx="62.7" cy="405.3" r="7" fill="#ffffff"/><circle cx="62.7" cy="394.7" r="7" fill="#ffffff"/><circle cx="72.8" cy="391.4" r="7" fill="#ffffff"/><circle cx="70" cy="400" r="5" fill="#f7b32b"/><rect x="148" y="450" width="4" height="46" fill="#3f7a3c"/><circle cx="159.0" cy="450.0" r="7" fill="#ffd447"/><circle cx="152.8" cy="458.6" r="7" fill="#ffd447"/><circle cx="142.7" cy="455.3" r="7" fill="#ffd447"/><circle cx="142.7" cy="444.7" r="7" fill="#ffd447"/><circle cx="152.8" cy="441.4" r="7" fill="#ffd447"/><circle cx="150" cy="450" r="5" fill="#f7b32b"/><rect x="228" y="400" width="4" height="46" fill="#3f7a3c"/><circle cx="239.0" cy="400.0" r="7" fill="#ef6f8a"/><circle cx="232.8" cy="408.6" r="7" fill="#ef6f8a"/><circle cx="222.7" cy="405.3" r="7" fill="#ef6f8a"/><circle cx="222.7" cy="394.7" r="7" fill="#ef6f8a"/><circle cx="232.8" cy="391.4" r="7" fill="#ef6f8a"/><circle cx="230" cy="400" r="5" fill="#f7b32b"/><rect x="298" y="470" width="4" height="46" fill="#3f7a3c"/><circle cx="309.0" cy="470.0" r="7" fill="#ffffff"/><circle cx="302.8" cy="478.6" r="7" fill="#ffffff"/><circle cx="292.7" cy="475.3" r="7" fill="#ffffff"/><circle cx="292.7" cy="464.7" r="7" fill="#ffffff"/><circle cx="302.8" cy="461.4" r="7" fill="#ffffff"/><circle cx="300" cy="470" r="5" fill="#f7b32b"/><rect x="368" y="415" width="4" height="46" fill="#3f7a3c"/><circle cx="379.0" cy="415.0" r="7" fill="#c07de0"/><circle cx="372.8" cy="423.6" r="7" fill="#c07de0"/><circle cx="362.7" cy="420.3" r="7" fill="#c07de0"/><circle cx="362.7" cy="409.7" r="7" fill="#c07de0"/><circle cx="372.8" cy="406.4" r="7" fill="#c07de0"/><circle cx="370" cy="415" r="5" fill="#f7b32b"/><rect x="448" y="460" width="4" height="46" fill="#3f7a3c"/><circle cx="459.0" cy="460.0" r="7" fill="#ffd447"/><circle cx="452.8" cy="468.6" r="7" fill="#ffd447"/><circle cx="442.7" cy="465.3" r="7" fill="#ffd447"/><circle cx="442.7" cy="454.7" r="7" fill="#ffd447"/><circle cx="452.8" cy="451.4" r="7" fill="#ffd447"/><circle cx="450" cy="460" r="5" fill="#f7b32b"/><rect x="108" y="350" width="4" height="46" fill="#3f7a3c"/><circle cx="119.0" cy="350.0" r="7" fill="#ef6f8a"/><circle cx="112.8" cy="358.6" r="7" fill="#ef6f8a"/><circle cx="102.7" cy="355.3" r="7" fill="#ef6f8a"/><circle cx="102.7" cy="344.7" r="7" fill="#ef6f8a"/><circle cx="112.8" cy="341.4" r="7" fill="#ef6f8a"/><circle cx="110" cy="350" r="5" fill="#f7b32b"/><rect x="418" y="350" width="4" height="46" fill="#3f7a3c"/><circle cx="429.0" cy="350.0" r="7" fill="#ffffff"/><circle cx="422.8" cy="358.6" r="7" fill="#ffffff"/><circle cx="412.7" cy="355.3" r="7" fill="#ffffff"/><circle cx="412.7" cy="344.7" r="7" fill="#ffffff"/><circle cx="422.8" cy="341.4" r="7" fill="#ffffff"/><circle cx="420" cy="350" r="5" fill="#f7b32b"/></svg>