<svg xmlns="http://www.w3.org/2000/svg" viewBox="0 0 512 512" width="512" height="512"><defs><linearGradient id="sky" x1="0" y1="0" x2="0" y2="1"><stop offset="0%" stop-color="#e8f1e2"/><stop offset="100%" stop-color="#c9dcc2"/></linearGradient></defs><rect width="512" height="512" fill="url(#sky)"/><rect x="40" y="0" width="20" height="512" fill="#f4f2ea"/><rect x="40" y="0" width="5" height="512" fill="#d9d6c8"/><rect x="42" y="70" width="13" height="6" rx="3" fill="#3c4038" fill-opacity="0.7"/><rect x="42" y="180" width="13" height="6" rx="3" fill="#3c4038" fill-opacity="0.7"/><rect x="42" y="290" width="13" height="6" rx="3" fill="#3c4038" fill-opacity="0.7"/><rect x="42" y="400" width="13" height="6" rx="3" fill="#3c4038" fill-opacity="0.7"/><rect x="120" y="0" width="26" height="512" fill="#f4f2ea"/><rect x="120" y="0" width="8" height="512" fill="#d9d6c8"/><rect x="122" y="83" width="17" height="6" rx="3" fill="#3c4038" fill-opacity="0.7"/><rect x="122" y="193" width="17" height="6" rx="3" fill="#3c4038" fill-opacity="0.7"/><rect x="122" y="303" width="17" height="6" rx="3" fill="#3c4038" fill-opacity="0.7"/><rect x="122" y="413" width="17" height="6" rx="3" fill="#3c4038" fill-opacity="0.7"/><rect x="210" y="0" width="32" height="512" fill="#f4f2ea"/><rect x="210" y="0" width="5" height="512" fill="#d9d6c8"/><rect x="212" y="96" width="21" height="6" rx="3" fill="#3c4038" fill-opacity="0.7"/><rect x="212" y="206" width="21" height="6" rx="3" fill="#3c4038" fill-opacity="0.7"/><rect x="212" y="316" width="21" height="6" rx="3" fill="#3c4038" fill-opacity="0.7"/><rect x="212" y="426" width="21" height="6" rx="3" fill="#3c4038" fill-opacity="0.7"/><rect x="300" y="0" width="20" height="512" fill="#f4f2ea"/><rect x="300" y="0" width="8" height="512" fill="#d9d6c8"/><rect x="302" y="109" width="13" height="6" rx="3" fill="#3c4038" fill-opacity="0.7"/><rect x="302" y="219" width="13" height="6" rx="3" fill="#3c4038" fill-opacity="0.7"/><rect x="302" y="329" width="13" height="6" rx="3" fill="#3c4038" fill-opacity="0.7"/><rect x="302" y="439" width="13" height="6" rx="3" fill="#3c4038" fill-opacity="0.7"/><rect x="385" y="0" width="26" height="512" fill="#f4f2ea"/><rect x="385" y="0" width="5" height="512" fill="#d9d6c8"/><rect x="387" y="122" width="17" height="6" rx="3" fill="#3c4038" fill-opacity="0.7"/><rect x="387" y="232" width="17" height="6" rx="3" fill="#3c4038" fill-opacity="0.7"/><rect x="387" y="342" width="17" height="6" rx="3" fill="#3c4038" fill-opacity="0.7"/><rect x="387" y="452" width="17" height="6" rx="3" fill="#3c4038" fill-opacity="0.7"/><rect x="465" y="0" width="32" height="512" fill="#f4f2ea"/><rect x="465" y="0" width="8" height="512" fill="#d9d6c8"/><rect x="467" y="75" width="21" height="6" rx="3" fill="#3c4038" fill-opacity="0.7"/><rect x="467" y="185" width="21" height="6" rx="3" fill="#3c4038" fill-opacity="0.7"/><rect x="467" y="295" width="21" height="6" rx="3" fill="#3c4038" fill-opacity="0.7"/><rect x="467" y="405" width="21" height="6" rx="3" fill="#3c4038" fill-opacity="0.7"/><path d="M0 470 H512 V512 H0 Z" fill="#6f8a5e"/></svg>