<svg xmlns="http://www.w3.org/2000/svg" viewBox="0 0 512 512" width="512" height="512"><defs><radialGradient id="cg" cx="30%" cy="76%" r="60%"><stop offset="0%" stop-color="#55c8c0" stop-opacity="0.1"/><stop offset="70%" stop-color="#55c8c0" stop-opacity="0"/></radialGradient><filter id="b4d" x="-60%" y="-60%" width="220%" height="220%"><feGaussianBlur stdDeviation="4"/></filter><filter id="grain" x="-20%" y="-20%" width="140%" height="140%"><feTurbulence type="fractalNoise" baseFrequency="0.9" numOctaves="2" stitchTiles="stitch"/><feColorMatrix type="saturate" values="0"/><feComponentTransfer><feFuncA type="linear" slope="0" intercept="1"/></feComponentTransfer></filter><radialGradient id="sceneVig" cx="50%" cy="46%" r="78%"><stop offset="54%" stop-color="#020407" stop-opacity="0"/><stop offset="100%" stop-color="#020407" stop-opacity="0.38"/></radialGradient></defs><rect width="512" height="512" fill="#0d1f26"/><rect width="512" height="512" fill="url(#cg)"/><circle cx="20" cy="20" r="2" fill="#55c8c0" fill-opacity="0.02"/><circle cx="20" cy="51.5" r="2" fill="#55c8c0" fill-opacity="0.06"/><circle cx="20" cy="83" r="2" fill="#55c8c0" fill-opacity="0.10"/><circle cx="20" cy="114.5" r="2" fill="#55c8c0" fill-opacity="0.14"/><circle cx="20" cy="146" r="2" fill="#55c8c0" fill-opacity="0.18"/><circle cx="20" cy="177.5" r="2" fill="#55c8c0" fill-opacity="0.21"/><circle cx="20" cy="209" r="2" fill="#55c8c0" fill-opacity="0.25"/><circle cx="20" cy="240.5" r="2" fill="#55c8c0" fill-opacity="0.28"/><circle cx="20" cy="272" r="2" fill="#55c8c0" fill-opacity="0.31"/><circle cx="20" cy="303.5" r="2" fill="#55c8c0" fill-opacity="0.34"/><circle cx="20" cy="335" r="2" fill="#55c8c0" fill-opacity="0.36"/><circle cx="20" cy="366.5" r="2" fill="#55c8c0" fill-opacity="0.37"/><circle cx="20" cy="398" r="2" fill="#55c8c0" fill-opacity="0.37"/><circle cx="20" cy="429.5" r="2" fill="#55c8c0" fill-opacity="0.37"/><circle cx="20" cy="461" r="2" fill="#55c8c0" fill-opacity="0.35"/><circle cx="20" cy="492.5" r="2" fill="#55c8c0" fill-opacity="0.33"/><circle cx="51.5" cy="20" r="2" fill="#55c8c0" fill-opacity="0.03"/><circle cx="51.5" cy="51.5" r="2" fill="#55c8c0" fill-opacity="0.07"/><circle cx="51.5" cy="83" r="2" fill="#55c8c0" fill-opacity="0.12"/><circle cx="51.5" cy="114.5" r="2" fill="#55c8c0" fill-opacity="0.16"/><circle cx="51.5" cy="146" r="2" fill="#55c8c0" fill-opacity="0.20"/><circle cx="51.5" cy="177.5" r="2" fill="#55c8c0" fill-opacity="0.23"/><circle cx="51.5" cy="209" r="2" fill="#55c8c0" fill-opacity="0.27"/><circle cx="51.5" cy="240.5" r="2" fill="#55c8c0" fill-opacity="0.31"/><circle cx="51.5" cy="272" r="2" fill="#55c8c0" fill-opacity="0.34"/><circle cx="51.5" cy="303.5" r="2" fill="#55c8c0" fill-opacity="0.37"/><circle cx="51.5" cy="335" r="2" fill="#55c8c0" fill-opacity="0.40"/><circle cx="51.5" cy="366.5" r="2" fill="#55c8c0" fill-opacity="0.41"/><circle cx="51.5" cy="398" r="2" fill="#55c8c0" fill-opacity="0.42"/><circle cx="51.5" cy="429.5" r="2" fill="#55c8c0" fill-opacity="0.41"/><circle cx="51.5" cy="461" r="2" fill="#55c8c0" fill-opacity="0.39"/><circle cx="51.5" cy="492.5" r="2" fill="#55c8c0" fill-opacity="0.36"/><circle cx="83" cy="20" r="2" fill="#55c8c0" fill-opacity="0.04"/><circle cx="83" cy="51.5" r="2" fill="#55c8c0" fill-opacity="0.08"/><circle cx="83" cy="83" r="2" fill="#55c8c0" fill-opacity="0.13"/><circle cx="83" cy="114.5" r="2" fill="#55c8c0" fill-opacity="0.17"/><circle cx="83" cy="146" r="2" fill="#55c8c0" fill-opacity="0.21"/><circle cx="83" cy="177.5" r="2" fill="#55c8c0" fill-opacity="0.25"/><circle cx="83" cy="209" r="2" fill="#55c8c0" fill-opacity="0.29"/><circle cx="83" cy="240.5" r="2" fill="#55c8c0" fill-opacity="0.33"/><circle cx="83" cy="272" r="2" fill="#55c8c0" fill-opacity="0.37"/><circle cx="83" cy="303.5" r="2" fill="#55c8c0" fill-opacity="0.40"/><circle cx="83" cy="335" r="2" fill="#55c8c0" fill-opacity="0.43"/><circle cx="83" cy="366.5" r="2" fill="#55c8c0" fill-opacity="0.45"/><circle cx="83" cy="398" r="2" fill="#55c8c0" fill-opacity="0.46"/><circle cx="83" cy="429.5" r="2" fill="#55c8c0" fill-opacity="0.45"/><circle cx="83" cy="461" r="2" fill="#55c8c0" fill-opacity="0.42"/><circle cx="83" cy="492.5" r="2" fill="#55c8c0" fill-opacity="0.38"/><circle cx="114.5" cy="20" r="2" fill="#55c8c0" fill-opacity="0.05"/><circle cx="114.5" cy="51.5" r="2" fill="#55c8c0" fill-opacity="0.09"/><circle cx="114.5" cy="83" r="2" fill="#55c8c0" fill-opacity="0.13"/><circle cx="114.5" cy="114.5" r="2" fill="#55c8c0" fill-opacity="0.18"/><circle cx="114.5" cy="146" r="2" fill="#55c8c0" fill-opacity="0.22"/><circle cx="114.5" cy="177.5" r="2" fill="#55c8c0" fill-opacity="0.26"/><circle cx="114.5" cy="209" r="2" fill="#55c8c0" fill-opacity="0.30"/><circle cx="114.5" cy="240.5" r="2" fill="#55c8c0" fill-opacity="0.34"/><circle cx="114.5" cy="272" r="2" fill="#55c8c0" fill-opacity="0.38"/><circle cx="114.5" cy="303.5" r="2" fill="#55c8c0" fill-opacity="0.42"/><circle cx="114.5" cy="335" r="2" fill="#55c8c0" fill-opacity="0.46"/><circle cx="114.5" cy="366.5" r="2" fill="#55c8c0" fill-opacity="0.49"/><circle cx="114.5" cy="398" r="2" fill="#55c8c0" fill-opacity="0.50"/><circle cx="114.5" cy="429.5" r="2" fill="#55c8c0" fill-opacity="0.48"/><circle cx="114.5" cy="461" r="2" fill="#55c8c0" fill-opacity="0.44"/><circle cx="114.5" cy="492.5" r="2" fill="#55c8c0" fill-opacity="0.40"/><circle cx="146" cy="20" r="2" fill="#55c8c0" fill-opacity="0.05"/><circle cx="146" cy="51.5" r="2" fill="#55c8c0" fill-opacity="0.09"/><circle cx="146" cy="83" r="2" fill="#55c8c0" fill-opacity="0.14"/><circle cx="146" cy="114.5" r="2" fill="#55c8c0" fill-opacity="0.18"/><circle cx="146" cy="146" r="2" fill="#55c8c0" fill-opacity="0.22"/><circle cx="146" cy="177.5" r="2" fill="#55c8c0" fill-opacity="0.26"/><circle cx="146" cy="209" r="2" fill="#55c8c0" fill-opacity="0.31"/><circle cx="146" cy="240.5" r="2" fill="#55c8c0" fill-opacity="0.35"/><circle cx="146" cy="272" r="2" fill="#55c8c0" fill-opacity="0.39"/><circle cx="146" cy="303.5" r="2" fill="#55c8c0" fill-opacity="0.43"/><circle cx="146" cy="335" r="2" fill="#55c8c0" fill-opacity="0.48"/><circle cx="146" cy="366.5" r="2" fill="#55c8c0" fill-opacity="0.52"/><circle cx="146" cy="398" r="2" fill="#55c8c0" fill-opacity="0.54"/><circle cx="146" cy="429.5" r="2" fill="#55c8c0" fill-opacity="0.50"/><circle cx="146" cy="461" r="2" fill="#55c8c0" fill-opacity="0.45"/><circle cx="146" cy="492.5" r="2" fill="#55c8c0" fill-opacity="0.41"/><circle cx="177.5" cy="20" r="2" fill="#55c8c0" fill-opacity="0.05"/><circle cx="177.5" cy="51.5" r="2" fill="#55c8c0" fill-opacity="0.09"/><circle cx="177.5" cy="83" r="2" fill="#55c8c0" fill-opacity="0.13"/><circle cx="177.5" cy="114.5" r="2" fill="#55c8c0" fill-opacity="0.18"/><circle cx="177.5" cy="146" r="2" fill="#55c8c0" fill-opacity="0.22"/><circle cx="177.5" cy="177.5" r="2" fill="#55c8c0" fill-opacity="0.26"/><circle cx="177.5" cy="209" r="2" fill="#55c8c0" fill-opacity="0.30"/><circle cx="177.5" cy="240.5" r="2" fill="#55c8c0" fill-opacity="0.35"/><circle cx="177.5" cy="272" r="2" fill="#55c8c0" fill-opacity="0.39"/><circle cx="177.5" cy="303.5" r="2" fill="#55c8c0" fill-opacity="0.43"/><circle cx="177.5" cy="335" r="2" fill="#55c8c0" fill-opacity="0.47"/><circle cx="177.5" cy="366.5" r="2" fill="#55c8c0" fill-opacity="0.50"/><circle cx="177.5" cy="398" r="2" fill="#55c8c0" fill-opacity="0.51"/><circle cx="177.5" cy="429.5" r="2" fill="#55c8c0" fill-opacity="0.49"/><circle cx="177.5" cy="461" r="2" fill="#55c8c0" fill-opacity="0.45"/><circle cx="177.5" cy="492.5" r="2" fill="#55c8c0" fill-opacity="0.41"/><circle cx="209" cy="20" r="2" fill="#55c8c0" fill-opacity="0.05"/><circle cx="209" cy="51.5" r="2" fill="#55c8c0" fill-opacity="0.09"/><circle cx="209" cy="83" r="2" fill="#55c8c0" fill-opacity="0.13"/><circle cx="209" cy="114.5" r="2" fill="#55c8c0" fill-opacity="0.17"/><circle cx="209" cy="146" r="2" fill="#55c8c0" fill-opacity="0.21"/><circle cx="209" cy="177.5" r="2" fill="#55c8c0" fill-opacity="0.25"/><circle cx="209" cy="209" r="2" fill="#55c8c0" fill-opacity="0.29"/><circle cx="209" cy="240.5" r="2" fill="#55c8c0" fill-opacity="0.33"/><circle cx="209" cy="272" r="2" fill="#55c8c0" fill-opacity="0.37"/><circle cx="209" cy="303.5" r="2" fill="#55c8c0" fill-opacity="0.41"/><circle cx="209" cy="335" r="2" fill="#55c8c0" fill-opacity="0.44"/><circle cx="209" cy="366.5" r="2" fill="#55c8c0" fill-opacity="0.46"/><circle cx="209" cy="398" r="2" fill="#55c8c0" fill-opacity="0.47"/><circle cx="209" cy="429.5" r="2" fill="#55c8c0" fill-opacity="0.45"/><circle cx="209" cy="461" r="2" fill="#55c8c0" fill-opacity="0.43"/><circle cx="209" cy="492.5" r="2" fill="#55c8c0" fill-opacity="0.39"/><circle cx="240.5" cy="20" r="2" fill="#55c8c0" fill-opacity="0.04"/><circle cx="240.5" cy="51.5" r="2" fill="#55c8c0" fill-opacity="0.08"/><circle cx="240.5" cy="83" r="2" fill="#55c8c0" fill-opacity="0.12"/><circle cx="240.5" cy="114.5" r="2" fill="#55c8c0" fill-opacity="0.16"/><circle cx="240.5" cy="146" r="2" fill="#55c8c0" fill-opacity="0.20"/><circle cx="240.5" cy="177.5" r="2" fill="#55c8c0" fill-opacity="0.24"/><circle cx="240.5" cy="209" r="2" fill="#55c8c0" fill-opacity="0.28"/><circle cx="240.5" cy="240.5" r="2" fill="#55c8c0" fill-opacity="0.31"/><circle cx="240.5" cy="272" r="2" fill="#55c8c0" fill-opacity="0.35"/><circle cx="240.5" cy="303.5" r="2" fill="#55c8c0" fill-opacity="0.38"/><circle cx="240.5" cy="335" r="2" fill="#55c8c0" fill-opacity="0.41"/><circle cx="240.5" cy="366.5" r="2" fill="#55c8c0" fill-opacity="0.42"/><circle cx="240.5" cy="398" r="2" fill="#55c8c0" fill-opacity="0.43"/><circle cx="240.5" cy="429.5" r="2" fill="#55c8c0" fill-opacity="0.42"/><circle cx="240.5" cy="461" r="2" fill="#55c8c0" fill-opacity="0.39"/><circle cx="240.5" cy="492.5" r="2" fill="#55c8c0" fill-opacity="0.37"/><circle cx="272" cy="20" r="2" fill="#55c8c0" fill-opacity="0.02"/><circle cx="272" cy="51.5" r="2" fill="#55c8c0" fill-opacity="0.07"/><circle cx="272" cy="83" r="2" fill="#55c8c0" fill-opacity="0.10"/><circle cx="272" cy="114.5" r="2" fill="#55c8c0" fill-opacity="0.14"/><circle cx="272" cy="146" r="2" fill="#55c8c0" fill-opacity="0.18"/><circle cx="272" cy="177.5" r="2" fill="#55c8c0" fill-opacity="0.22"/><circle cx="272" cy="209" r="2" fill="#55c8c0" fill-opacity="0.26"/><circle cx="272" cy="240.5" r="2" fill="#55c8c0" fill-opacity="0.29"/><circle cx="272" cy="272" r="2" fill="#55c8c0" fill-opacity="0.32"/><circle cx="272" cy="303.5" r="2" fill="#55c8c0" fill-opacity="0.35"/><circle cx="272" cy="335" r="2" fill="#55c8c0" fill-opacity="0.37"/><circle cx="272" cy="366.5" r="2" fill="#55c8c0" fill-opacity="0.38"/><circle cx="272" cy="398" r="2" fill="#55c8c0" fill-opacity="0.39"/><circle cx="272" cy="429.5" r="2" fill="#55c8c0" fill-opacity="0.38"/><circle cx="272" cy="461" r="2" fill="#55c8c0" fill-opacity="0.36"/><circle cx="272" cy="492.5" r="2" fill="#55c8c0" fill-opacity="0.34"/><circle cx="303.5" cy="51.5" r="2" fill="#55c8c0" fill-opacity="0.05"/><circle cx="303.5" cy="83" r="2" fill="#55c8c0" fill-opacity="0.09"/><circle cx="303.5" cy="114.5" r="2" fill="#55c8c0" fill-opacity="0.12"/><circle cx="303.5" cy="146" r="2" fill="#55c8c0" fill-opacity="0.16"/><circle cx="303.5" cy="177.5" r="2" fill="#55c8c0" fill-opacity="0.20"/><circle cx="303.5" cy="209" r="2" fill="#55c8c0" fill-opacity="0.23"/><circle cx="303.5" cy="240.5" r="2" fill="#55c8c0" fill-opacity="0.26"/><circle cx="303.5" cy="272" r="2" fill="#55c8c0" fill-opacity="0.29"/><circle cx="303.5" cy="303.5" r="2" fill="#55c8c0" fill-opacity="0.31"/><circle cx="303.5" cy="335" r="2" fill="#55c8c0" fill-opacity="0.33"/><circle cx="303.5" cy="366.5" r="2" fill="#55c8c0" fill-opacity="0.34"/><circle cx="303.5" cy="398" r="2" fill="#55c8c0" fill-opacity="0.34"/><circle cx="303.5" cy="429.5" r="2" fill="#55c8c0" fill-opacity="0.34"/><circle cx="303.5" cy="461" r="2" fill="#55c8c0" fill-opacity="0.32"/><circle cx="303.5" cy="492.5" r="2" fill="#55c8c0" fill-opacity="0.30"/><circle cx="335" cy="51.5" r="2" fill="#55c8c0" fill-opacity="0.03"/><circle cx="335" cy="83" r="2" fill="#55c8c0" fill-opacity="0.07"/><circle cx="335" cy="114.5" r="2" fill="#55c8c0" fill-opacity="0.10"/><circle cx="335" cy="146" r="2" fill="#55c8c0" fill-opacity="0.14"/><circle cx="335" cy="177.5" r="2" fill="#55c8c0" fill-opacity="0.17"/><circle cx="335" cy="209" r="2" fill="#55c8c0" fill-opacity="0.20"/><circle cx="335" cy="240.5" r="2" fill="#55c8c0" fill-opacity="0.23"/><circle cx="335" cy="272" r="2" fill="#55c8c0" fill-opacity="0.25"/><circle cx="335" cy="303.5" r="2" fill="#55c8c0" fill-opacity="0.27"/><circle cx="335" cy="335" r="2" fill="#55c8c0" fill-opacity="0.29"/><circle cx="335" cy="366.5" r="2" fill="#55c8c0" fill-opacity="0.30"/><circle cx="335" cy="398" r="2" fill="#55c8c0" fill-opacity="0.30"/><circle cx="335" cy="429.5" r="2" fill="#55c8c0" fill-opacity="0.30"/><circle cx="335" cy="461" r="2" fill="#55c8c0" fill-opacity="0.28"/><circle cx="335" cy="492.5" r="2" fill="#55c8c0" fill-opacity="0.26"/><circle cx="366.5" cy="83" r="2" fill="#55c8c0" fill-opacity="0.04"/><circle cx="366.5" cy="114.5" r="2" fill="#55c8c0" fill-opacity="0.08"/><circle cx="366.5" cy="146" r="2" fill="#55c8c0" fill-opacity="0.11"/><circle cx="366.5" cy="177.5" r="2" fill="#55c8c0" fill-opacity="0.14"/><circle cx="366.5" cy="209" r="2" fill="#55c8c0" fill-opacity="0.17"/><circle cx="366.5" cy="240.5" r="2" fill="#55c8c0" fill-opacity="0.20"/><circle cx="366.5" cy="272" r="2" fill="#55c8c0" fill-opacity="0.22"/><circle cx="366.5" cy="303.5" r="2" fill="#55c8c0" fill-opacity="0.24"/><circle cx="366.5" cy="335" r="2" fill="#55c8c0" fill-opacity="0.25"/><circle cx="366.5" cy="366.5" r="2" fill="#55c8c0" fill-opacity="0.26"/><circle cx="366.5" cy="398" r="2" fill="#55c8c0" fill-opacity="0.26"/><circle cx="366.5" cy="429.5" r="2" fill="#55c8c0" fill-opacity="0.25"/><circle cx="366.5" cy="461" r="2" fill="#55c8c0" fill-opacity="0.24"/><circle cx="366.5" cy="492.5" r="2" fill="#55c8c0" fill-opacity="0.23"/><circle cx="398" cy="114.5" r="2" fill="#55c8c0" fill-opacity="0.05"/><circle cx="398" cy="146" r="2" fill="#55c8c0" fill-opacity="0.08"/><circle cx="398" cy="177.5" r="2" fill="#55c8c0" fill-opacity="0.11"/><circle cx="398" cy="209" r="2" fill="#55c8c0" fill-opacity="0.14"/><circle cx="398" cy="240.5" r="2" fill="#55c8c0" fill-opacity="0.16"/><circle cx="398" cy="272" r="2" fill="#55c8c0" fill-opacity="0.18"/><circle cx="398" cy="303.5" r="2" fill="#55c8c0" fill-opacity="0.20"/><circle cx="398" cy="335" r="2" fill="#55c8c0" fill-opacity="0.21"/><circle cx="398" cy="366.5" r="2" fill="#55c8c0" fill-opacity="0.21"/><circle cx="398" cy="398" r="2" fill="#55c8c0" fill-opacity="0.22"/><circle cx="398" cy="429.5" r="2" fill="#55c8c0" fill-opacity="0.21"/><circle cx="398" cy="461" r="2" fill="#55c8c0" fill-opacity="0.20"/><circle cx="398" cy="492.5" r="2" fill="#55c8c0" fill-opacity="0.19"/><circle cx="429.5" cy="114.5" r="2" fill="#55c8c0" fill-opacity="0.02"/><circle cx="429.5" cy="146" r="2" fill="#55c8c0" fill-opacity="0.05"/><circle cx="429.5" cy="177.5" r="2" fill="#55c8c0" fill-opacity="0.08"/><circle cx="429.5" cy="209" r="2" fill="#55c8c0" fill-opacity="0.10"/><circle cx="429.5" cy="240.5" r="2" fill="#55c8c0" fill-opacity="0.12"/><circle cx="429.5" cy="272" r="2" fill="#55c8c0" fill-opacity="0.14"/><circle cx="429.5" cy="303.5" r="2" fill="#55c8c0" fill-opacity="0.16"/><circle cx="429.5" cy="335" r="2" fill="#55c8c0" fill-opacity="0.17"/><circle cx="429.5" cy="366.5" r="2" fill="#55c8c0" fill-opacity="0.17"/><circle cx="429.5" cy="398" r="2" fill="#55c8c0" fill-opacity="0.17"/><circle cx="429.5" cy="429.5" r="2" fill="#55c8c0" fill-opacity="0.17"/><circle cx="429.5" cy="461" r="2" fill="#55c8c0" fill-opacity="0.16"/><circle cx="429.5" cy="492.5" r="2" fill="#55c8c0" fill-opacity="0.15"/><circle cx="461" cy="177.5" r="2" fill="#55c8c0" fill-opacity="0.04"/><circle cx="461" cy="209" r="2" fill="#55c8c0" fill-opacity="0.07"/><circle cx="461" cy="240.5" r="2" fill="#55c8c0" fill-opacity="0.08"/><circle cx="461" cy="272" r="2" fill="#55c8c0" fill-opacity="0.10"/><circle cx="461" cy="303.5" r="2" fill="#55c8c0" fill-opacity="0.11"/><circle cx="461" cy="335" r="2" fill="#55c8c0" fill-opacity="0.12"/><circle cx="461" cy="366.5" r="2" fill="#55c8c0" fill-opacity="0.13"/><circle cx="461" cy="398" r="2" fill="#55c8c0" fill-opacity="0.13"/><circle cx="461" cy="429.5" r="2" fill="#55c8c0" fill-opacity="0.13"/><circle cx="461" cy="461" r="2" fill="#55c8c0" fill-opacity="0.12"/><circle cx="461" cy="492.5" r="2" fill="#55c8c0" fill-opacity="0.11"/><circle cx="492.5" cy="209" r="2" fill="#55c8c0" fill-opacity="0.03"/><circle cx="492.5" cy="240.5" r="2" fill="#55c8c0" fill-opacity="0.05"/><circle cx="492.5" cy="272" r="2" fill="#55c8c0" fill-opacity="0.06"/><circle cx="492.5" cy="303.5" r="2" fill="#55c8c0" fill-opacity="0.07"/><circle cx="492.5" cy="335" r="2" fill="#55c8c0" fill-opacity="0.08"/><circle cx="492.5" cy="366.5" r="2" fill="#55c8c0" fill-opacity="0.09"/><circle cx="492.5" cy="398" r="2" fill="#55c8c0" fill-opacity="0.09"/><circle cx="492.5" cy="429.5" r="2" fill="#55c8c0" fill-opacity="0.09"/><circle cx="492.5" cy="461" r="2" fill="#55c8c0" fill-opacity="0.08"/><circle cx="492.5" cy="492.5" r="2" fill="#55c8c0" fill-opacity="0.07"/><circle cx="368" cy="128" r="46" fill="none" stroke="#7fe0d8" stroke-width="2.4" stroke-opacity="0.55"/><circle cx="368" cy="128" r="46" fill="none" stroke="#7fe0d8" stroke-width="6" stroke-opacity="0.2" filter="url(#b4d)"/><rect width="512" height="512" filter="url(#grain)" style="mix-blend-mode:overlay" opacity="0.09"/><rect width="512" height="512" fill="url(#sceneVig)"/></svg>