<svg xmlns="http://www.w3.org/2000/svg" viewBox="0 0 512 512" width="512" height="512"><defs><pattern id="hx" width="90" height="51.96" patternUnits="userSpaceOnUse"><g fill="none" stroke="#45c7a5" stroke-width="1.2" stroke-opacity="0.16"><polygon points="75,25.98 60,51.96 30,51.96 15,25.98 30,0 60,0"/><polygon points="30,0 15,25.98 -15,25.98 -30,0 -15,-25.98 15,-25.98"/><polygon points="120,0 105,25.98 75,25.98 60,0 75,-25.98 105,-25.98"/><polygon points="30,51.96 15,77.94 -15,77.94 -30,51.96 -15,25.98 15,25.98"/><polygon points="120,51.96 105,77.94 75,77.94 60,51.96 75,25.98 105,25.98"/></g></pattern><radialGradient id="g" cx="50%" cy="10%" r="80%"><stop offset="0%" stop-color="#45c7a5" stop-opacity="0.09"/><stop offset="58%" stop-color="#45c7a5" stop-opacity="0"/></radialGradient><radialGradient id="v" cx="50%" cy="44%" r="80%"><stop offset="50%" stop-color="#020f0c" stop-opacity="0"/><stop offset="100%" stop-color="#020f0c" stop-opacity="0.58"/></radialGradient></defs><rect width="512" height="512" fill="#07201c"/><rect width="512" height="512" fill="url(#hx)"/><rect width="512" height="512" fill="url(#g)"/><rect width="512" height="512" fill="url(#v)"/></svg>