<?xml version="1.0" encoding="UTF-8" standalone="no"?>
<!-- Created with Inkscape (http://www.inkscape.org/) -->

<svg
   width="66.067482mm"
   height="49.870399mm"
   viewBox="0 0 66.067484 49.8704"
   version="1.1"
   id="svg1"
   xml:space="preserve"
   inkscape:version="1.4.2 (f4327f4, 2025-05-13)"
   sodipodi:docname="bee.svg"
   inkscape:export-filename="bee.png"
   inkscape:export-xdpi="96"
   inkscape:export-ydpi="96"
   xmlns:inkscape="http://www.inkscape.org/namespaces/inkscape"
   xmlns:sodipodi="http://sodipodi.sourceforge.net/DTD/sodipodi-0.dtd"
   xmlns="http://www.w3.org/2000/svg"
   xmlns:svg="http://www.w3.org/2000/svg"><sodipodi:namedview
     id="namedview1"
     pagecolor="#ffffff"
     bordercolor="#000000"
     borderopacity="0.25"
     inkscape:showpageshadow="2"
     inkscape:pageopacity="0.0"
     inkscape:pagecheckerboard="0"
     inkscape:deskcolor="#d1d1d1"
     inkscape:document-units="mm"
     inkscape:zoom="4.1585017"
     inkscape:cx="192.25675"
     inkscape:cy="107.3704"
     inkscape:window-width="3440"
     inkscape:window-height="1369"
     inkscape:window-x="-8"
     inkscape:window-y="-6"
     inkscape:window-maximized="1"
     inkscape:current-layer="layer1" /><defs
     id="defs1" /><g
     inkscape:label="Layer 1"
     inkscape:groupmode="layer"
     id="layer1"
     transform="translate(-72.220282,-153.25669)"><path
       style="fill:#000000;stroke-width:0.524012;stroke:#333333"
       d="m 103.91273,202.93008 c -2.51178,-0.92577 -5.619975,-3.55465 -7.959876,-6.73237 -1.309851,-1.77887 -2.180779,-3.5261 -2.665626,-5.34773 -0.321293,-1.20713 -0.366321,-1.64103 -0.365865,-3.52554 4.24e-4,-1.7663 0.05366,-2.34442 0.298954,-3.24641 0.164141,-0.60358 0.269253,-1.1266 0.233583,-1.16227 -0.03569,-0.0357 -0.581674,0.15441 -1.213333,0.4224 -1.382464,0.58652 -1.71093,0.69267 -3.533867,1.14195 -2.344858,0.57794 -4.386156,0.40652 -6.345247,-0.53281 -1.230227,-0.58987 -1.893673,-1.26175 -2.54185,-2.5742 -0.492827,-0.99788 -0.512295,-1.09295 -0.511907,-2.49955 4.82e-4,-1.7539 0.234396,-2.38452 1.303972,-3.51544 l 0.695977,-0.73589 -1.402795,-0.67599 c -2.052009,-0.98886 -3.359639,-1.89301 -4.687579,-3.24119 -2.325805,-2.36127 -3.324986,-5.21171 -2.902517,-8.28023 0.402279,-2.92186 1.871613,-4.32683 4.912867,-4.69767 1.140905,-0.13912 3.826486,0.29013 5.673203,0.90676 3.789573,1.26538 8.946655,4.23434 12.967329,7.46536 l 1.355115,1.08897 0.07901,-1.33543 c 0.133078,-2.24911 0.847426,-3.89154 2.281149,-5.24484 l 0.763413,-0.72058 -0.422659,-0.52722 c -0.713143,-0.88956 -1.981283,-2.07097 -3.287057,-3.06223 -1.421267,-1.07895 -1.630258,-1.43386 -1.278578,-2.17134 0.288311,-0.60459 0.945757,-0.96319 1.556005,-0.8487 0.919924,0.17258 3.389139,2.24441 5.484689,4.60203 l 0.75495,0.84935 2.10508,-0.002 2.10509,-0.002 1.29171,-1.4041 c 1.4493,-1.57541 3.19707,-3.18426 3.96808,-3.65268 1.07291,-0.65186 2.03749,-0.48092 2.47608,0.43882 0.34899,0.73183 0.12568,1.12914 -1.21151,2.15551 -1.32249,1.01509 -3.39287,3.05445 -3.52566,3.47285 -0.0683,0.21524 0.0815,0.43285 0.66514,0.9663 1.33961,1.22433 2.17773,3.3363 2.17773,5.48767 0,0.49067 0.032,0.89213 0.0712,0.89213 0.0392,0 0.83464,-0.58353 1.76772,-1.29673 5.65835,-4.32495 11.7172,-7.40054 15.49168,-7.86389 1.88659,-0.2316 3.69475,-0.0895 4.72069,0.37087 1.66732,0.74825 2.85955,2.50197 3.00459,4.41964 0.20624,2.72697 -0.82125,5.49199 -2.92242,7.86437 -0.85205,0.96202 -3.35326,2.67868 -5.05791,3.4714 -0.6604,0.3071 -1.22815,0.58263 -1.26168,0.61227 -0.0335,0.0297 0.0913,0.16017 0.27729,0.29005 0.54642,0.38149 0.96692,0.88917 1.3494,1.62918 0.29296,0.56681 0.36901,0.93738 0.41706,2.03208 0.0852,1.94085 -0.2599,2.92412 -1.44116,4.10626 -1.49724,1.49836 -3.2508,2.05865 -6.0181,1.92284 -1.75554,-0.0862 -3.37906,-0.44481 -4.91333,-1.08542 -1.40986,-0.58866 -1.74797,-0.70729 -1.81755,-0.63771 -0.034,0.034 0.0276,0.36874 0.13681,0.74392 1.34373,4.61569 -0.21929,10.1189 -4.09929,14.43309 -1.63908,1.82251 -4.0708,3.66587 -6.03013,4.57114 -1.10573,0.51088 -2.06701,0.59651 -2.96807,0.26441 z m 3.91362,-7.21625 c 2.58772,-0.34117 3.84713,-0.78078 4.63711,-1.61863 0.58128,-0.61651 1.71436,-2.93354 1.52645,-3.12145 -0.028,-0.028 -0.47704,0.14037 -0.99795,0.37408 -4.36448,1.95821 -9.13531,2.24333 -13.612174,0.81349 -0.745501,-0.2381 -1.591544,-0.55269 -1.880096,-0.6991 -0.288552,-0.14639 -0.682714,-0.32628 -0.875917,-0.39973 -0.322734,-0.12271 -0.343558,-0.10821 -0.256279,0.17853 0.240936,0.79153 1.029254,2.30859 1.446661,2.78399 0.585515,0.66687 1.163693,0.95737 2.636655,1.32479 2.30775,0.57564 4.82735,0.7 7.37554,0.36403 z m -0.79011,-7.70156 c 2.52133,-0.28645 4.92039,-1.07164 6.41394,-2.09924 1.14468,-0.78756 1.15083,-0.79956 0.92357,-1.80211 -0.10928,-0.48207 -0.29595,-1.13859 -0.41483,-1.45893 l -0.21614,-0.58242 -0.85766,0.63216 c -1.15048,0.84799 -2.46434,1.49425 -3.9372,1.93663 -1.02448,0.30771 -1.56057,0.3757 -3.36745,0.42703 -1.97172,0.056 -2.26336,0.0316 -3.53544,-0.29585 -1.63859,-0.4218 -3.387122,-1.22773 -4.500092,-2.07415 l -0.800868,-0.60906 -0.218523,0.45825 c -0.305116,0.63984 -0.57243,2.02288 -0.469918,2.43131 0.05508,0.21947 0.409594,0.55423 0.9934,0.93806 2.739072,1.80084 6.201881,2.52837 9.987211,2.09832 z M 88.111229,181.8977 c 2.437592,-0.43783 4.90618,-1.7947 8.066159,-4.43358 0.787055,-0.65727 1.709368,-1.44348 2.049583,-1.74715 l 0.618575,-0.55211 -0.341284,-0.18373 c -0.556799,-0.29974 -8.463895,-0.26644 -10.543535,0.0444 -3.906826,0.58397 -5.72806,1.52804 -6.075805,3.1495 -0.204019,0.95132 -0.188597,1.22057 0.107223,1.87174 0.778409,1.71346 3.053328,2.40158 6.119084,1.85092 z m 38.423091,-0.18074 c 2.21733,-0.79613 2.80395,-3.11622 1.2012,-4.75073 -0.32768,-0.33418 -0.91801,-0.7654 -1.31185,-0.95826 -0.9503,-0.46537 -3.49964,-0.97056 -5.9191,-1.17297 -1.8888,-0.15801 -6.5593,-0.10125 -8.227,0.1 l -0.72039,0.0869 1.01999,0.95596 c 3.74863,3.51333 6.57721,5.2634 9.50203,5.87896 1.17276,0.24683 3.58945,0.17096 4.45512,-0.13987 z M 97.883518,171.64849 c -3.512576,-3.53637 -7.72901,-6.60206 -12.198568,-8.86932 -3.33578,-1.69213 -5.495484,-2.35485 -7.654276,-2.34877 -2.389414,0.007 -3.195932,0.99437 -3.054453,3.74037 0.0822,1.59548 0.397856,2.49906 1.343298,3.84533 1.41588,2.01614 4.16887,3.65394 7.727591,4.59729 0.994569,0.26364 1.243385,0.28199 2.010344,0.14833 0.481415,-0.0839 2.197957,-0.18816 3.814543,-0.23169 3.093713,-0.0833 5.185652,0.0552 7.736399,0.51232 0.762547,0.13665 1.510254,0.25532 1.661573,0.26371 0.188828,0.0105 -0.246023,-0.50941 -1.386451,-1.65757 z m 15.599702,1.23722 c 1.48692,-0.26697 2.2352,-0.31228 5.2685,-0.31905 1.9445,-0.004 4.22174,0.0471 5.06054,0.11431 1.36067,0.10902 1.65557,0.0894 2.73543,-0.18158 2.89187,-0.72581 5.00989,-1.84136 6.70878,-3.53349 1.66376,-1.65713 2.40992,-3.30783 2.40992,-5.33138 0,-1.6829 -0.57135,-2.68512 -1.75307,-3.07512 -0.81162,-0.26786 -3.20117,-0.0867 -4.69392,0.35582 -4.77966,1.41699 -12.62082,6.46831 -16.94932,10.91886 -1.17632,1.20948 -1.38924,1.57808 -0.83187,1.44005 0.17157,-0.0425 1.09183,-0.21728 2.04501,-0.38842 z"
       id="path1" /><text
       xml:space="preserve"
       style="font-style:normal;font-variant:normal;font-weight:normal;font-stretch:normal;font-size:3.83815px;font-family:'Segoe Print';-inkscape-font-specification:'Segoe Print';text-align:center;writing-mode:lr-tb;direction:ltr;text-anchor:middle;fill:#ffff00;fill-opacity:1;stroke:#ffffff;stroke-width:0.127157"
       x="86.270378"
       y="213.41371"
       id="text41"
       transform="scale(1.2169728,0.82171105)"><tspan
         sodipodi:role="line"
         style="font-style:normal;font-variant:normal;font-weight:normal;font-stretch:normal;font-family:'Segoe Print';-inkscape-font-specification:'Segoe Print';text-align:center;text-anchor:middle;fill:#ffff00;fill-opacity:1;stroke:#ffffff;stroke-width:0.127158"
         x="86.270378"
         y="213.41371"
         id="tspan43"> click </tspan><tspan
         sodipodi:role="line"
         style="font-style:normal;font-variant:normal;font-weight:normal;font-stretch:normal;font-family:'Segoe Print';-inkscape-font-specification:'Segoe Print';text-align:center;text-anchor:middle;fill:#ffff00;fill-opacity:1;stroke:#ffffff;stroke-width:0.127158"
         x="86.270378"
         y="218.2114"
         id="tspan46">to</tspan><tspan
         sodipodi:role="line"
         style="font-style:normal;font-variant:normal;font-weight:normal;font-stretch:normal;font-family:'Segoe Print';-inkscape-font-specification:'Segoe Print';text-align:center;text-anchor:middle;fill:#ffff00;fill-opacity:1;stroke:#ffffff;stroke-width:0.127158"
         x="86.270378"
         y="223.00908"
         id="tspan45"> Edit</tspan></text><ellipse
       style="opacity:1;fill:#f2d700;fill-opacity:1;stroke:#ffffff;stroke-width:0.478947;stroke-dasharray:none"
       id="path44"
       cx="101.73942"
       cy="164.33693"
       rx="1.812658"
       ry="1.4188634" /><ellipse
       style="opacity:1;fill:#f2d700;fill-opacity:1;stroke:#ffffff;stroke-width:0.478947;stroke-dasharray:none"
       id="ellipse45"
       cx="108.34042"
       cy="164.43124"
       rx="1.812658"
       ry="1.4188634" /><path
       id="path45"
       style="opacity:1;fill:#f2d700;fill-opacity:1;stroke:#f9f9f9;stroke-width:0.435454;stroke-dasharray:none"
       d="m 107.70559,168.88137 c 0,1.21989 -1.16942,2.2088 -2.61199,2.2088 -1.44255,0 -2.61198,-0.98891 -2.61198,-2.2088 0,-1.21987 1.27461,0.84145 2.71717,0.84145 1.44256,0 2.5068,-2.06132 2.5068,-0.84145 z"
       sodipodi:nodetypes="sssss" /></g></svg>
