<?xml version="1.0" encoding="UTF-8" standalone="no"?>
<!-- Generator: Adobe Illustrator 28.1.0, SVG Export Plug-In . SVG Version: 6.00 Build 0)  -->

<svg
   version="1.1"
   id="svg12785"
   inkscape:export-filename="C:\Projects\PBS-2\Hypercomb\PBS.HYPERCOMB\PBS.Hypercomb.Web\src\assets\branch-overlay.png"
   x="0px"
   y="0px"
   viewBox="0 0 346 400"
   style="enable-background:new 0 0 346 400;"
   xml:space="preserve"
   sodipodi:docname="new-placeholder.png"
   inkscape:version="1.1.2 (b8e25be833, 2022-02-05)"
   xmlns:inkscape="http://www.inkscape.org/namespaces/inkscape"
   xmlns:sodipodi="http://sodipodi.sourceforge.net/DTD/sodipodi-0.dtd"
   xmlns="http://www.w3.org/2000/svg"
   xmlns:svg="http://www.w3.org/2000/svg"><defs
   id="defs1077" />
<style
   type="text/css"
   id="style1070">
	.st0{opacity:0.99;fill:#8AE234;fill-opacity:0.5;enable-background:new    ;}
	.st1{fill:#FFFFFF;}
</style>
<sodipodi:namedview
   bordercolor="#eeeeee"
   borderopacity="1"
   id="namedview12787"
   inkscape:current-layer="layer1"
   inkscape:cx="99.008036"
   inkscape:cy="172.94261"
   inkscape:document-units="mm"
   inkscape:pagecheckerboard="0"
   inkscape:pageopacity="0"
   inkscape:pageshadow="0"
   inkscape:window-height="1017"
   inkscape:window-maximized="1"
   inkscape:window-width="1920"
   inkscape:window-x="-8"
   inkscape:window-y="-8"
   inkscape:zoom="1.5554293"
   pagecolor="#505050"
   showgrid="false"
   inkscape:lockguides="false">
	</sodipodi:namedview>
<g
   id="layer1"
   transform="translate(0.13364871,-34.738266)"
   inkscape:groupmode="layer"
   inkscape:label="Layer 1">
	
	<path
   style="fill:#2e3436;stroke-width:0.945146"
   d="M 172.91434,53.790876 16.208461,144.24057 v 180.90125 l 156.705879,90.54384 156.6099,-90.4497 V 144.33471 Z"
   id="path13008" />
<g
   id="path2313"
   style="font-size:93.3736px;font-family:'Baloo 2';-inkscape-font-specification:'Baloo 2, ';fill:#8ae234;stroke:#ffffff;stroke-width:9.44882;paint-order:stroke markers fill"><path
     style="color:#000000;-inkscape-font-specification:'Hyper heliX';fill:#ffffff;stroke:none;-inkscape-stroke:none"
     d="m 94.386719,196.85156 c -8.568526,0 -15.843541,2.21659 -20.847657,7.22071 -5.004115,5.00411 -7.220703,12.27913 -7.220703,20.84765 v 39.74024 h 21.121094 v -39.74024 c 0,-3.10316 0.703428,-4.58038 1.535156,-5.41211 0.831729,-0.83173 2.308948,-1.53515 5.41211,-1.53515 h 11.671871 c 3.10317,0 4.58038,0.70342 5.41211,1.53515 0.83173,0.83173 1.53516,2.30895 1.53516,5.41211 v 39.74024 h 21.12109 v -39.74024 c 0,-8.56852 -2.21658,-15.84354 -7.2207,-20.84765 -5.00412,-5.00412 -12.27913,-7.22071 -20.84766,-7.22071 z m 0,9.44922 h 11.671871 c 6.99373,0 11.38901,1.67612 14.16602,4.45313 2.77701,2.77701 4.45312,7.17229 4.45312,14.16601 v 30.29102 h -2.22265 v -30.29102 c 0,-4.67796 -1.2439,-9.03491 -4.30274,-12.09375 -3.05883,-3.05883 -7.41578,-4.30273 -12.09375,-4.30273 H 94.386719 c -4.677964,0 -9.034916,1.2439 -12.09375,4.30273 -3.058834,3.05884 -4.302735,7.41579 -4.302735,12.09375 v 30.29102 h -2.222656 v -30.29102 c 0,-6.99372 1.676116,-11.389 4.453125,-14.16601 2.77701,-2.77701 7.172291,-4.45313 14.166016,-4.45313 z"
     id="path2322" /><path
     style="color:#000000;-inkscape-font-specification:'Hyper heliX';stroke:none;-inkscape-stroke:none"
     d="m 117.73019,224.92002 q 0,-11.6717 -11.6717,-11.6717 H 94.386789 q -11.671699,0 -11.671699,11.6717 v 35.0151 h -11.6717 v -35.0151 q 0,-23.3434 23.343399,-23.3434 h 11.671701 q 23.3434,0 23.3434,23.3434 v 35.0151 h -11.6717 z"
     id="path2324" /></g><g
   id="path2315"
   style="font-size:93.3736px;font-family:'Baloo 2';-inkscape-font-specification:'Baloo 2, ';fill:#8ae234;stroke:#ffffff;stroke-width:9.44882;paint-order:stroke markers fill"><path
     style="color:#000000;-inkscape-font-specification:'Hyper heliX';fill:#ffffff;stroke:none;-inkscape-stroke:none"
     d="m 158.58203,196.85156 c -8.56853,0 -15.84549,2.21659 -20.84961,7.22071 -5.00411,5.00411 -7.21875,12.27913 -7.21875,20.84765 v 11.67188 c 0,8.56852 2.21464,15.84354 7.21875,20.84765 5.00412,5.00412 12.28108,7.22071 20.84961,7.22071 h 39.73828 v -21.1211 h -39.73828 c -3.10316,0 -4.58233,-0.70343 -5.41406,-1.53515 -0.1543,-0.1543 -0.25865,-0.48246 -0.40039,-0.6875 h 45.55273 v -4.72461 -16.39649 h -30.02344 l -16.63281,16.63281 c -0.002,-0.0994 -0.0293,-0.13333 -0.0293,-0.23632 v -11.67188 c 0,-3.10316 0.70147,-4.58038 1.5332,-5.41211 0.83173,-0.83173 2.3109,-1.53515 5.41406,-1.53515 h 39.73828 v -21.1211 z m 0,9.44922 h 30.28906 v 2.22266 h -30.28906 c -4.67796,0 -9.03687,1.2439 -12.0957,4.30273 -3.05884,3.05884 -4.30078,7.41579 -4.30078,12.09375 v 11.67188 c 0,4.67796 1.24194,9.03491 4.30078,12.09375 3.05883,3.05883 7.41774,4.30273 12.0957,4.30273 h 30.28906 v 2.22266 h -30.28906 c -6.99372,0 -11.39096,-1.67612 -14.16797,-4.45313 -2.77701,-2.77701 -4.45117,-7.17229 -4.45117,-14.16601 v -11.67188 c 0,-6.99372 1.67416,-11.389 4.45117,-14.16601 2.77701,-2.77701 7.17425,-4.45313 14.16797,-4.45313 z m 13.62695,23.34375 h 16.66211 v 2.22266 h -18.88476 z"
     id="path2328" /><path
     style="color:#000000;-inkscape-font-specification:'Hyper heliX';stroke:none;-inkscape-stroke:none"
     d="m 158.58114,213.24832 q -11.6717,0 -11.6717,11.6717 v 11.6717 q 0,11.6717 11.6717,11.6717 h 35.0151 v 11.6717 h -35.0151 q -23.3434,0 -23.3434,-23.3434 v -11.6717 q 0,-23.3434 23.3434,-23.3434 h 35.0151 v 11.6717 z m 35.0151,23.3434 h -35.0151 l 11.6717,-11.6717 h 23.3434 z"
     id="path2330" /></g><g
   id="path2317"
   style="font-size:93.3736px;font-family:'Baloo 2';-inkscape-font-specification:'Baloo 2, ';fill:#8ae234;stroke:#ffffff;stroke-width:9.44882;paint-order:stroke markers fill"><path
     style="color:#000000;-inkscape-font-specification:'Hyper heliX';fill:#ffffff;stroke:none;-inkscape-stroke:none"
     d="m 194.70703,196.85156 v 39.74024 c 0,8.56852 2.21659,15.84354 7.2207,20.84765 5.00412,5.00412 12.27913,7.22071 20.84766,7.22071 6.84972,0 12.8105,-1.49671 17.50781,-4.6211 4.69728,3.12427 10.65822,4.6211 17.50782,4.6211 8.56852,0 15.84354,-2.21659 20.84765,-7.22071 5.00412,-5.00411 7.22071,-12.27913 7.2207,-20.84765 v -39.74024 h -21.12109 v 39.74024 c 0,3.10316 -0.70343,4.58038 -1.53516,5.41211 -0.83172,0.83172 -2.30894,1.53515 -5.4121,1.53515 -3.10317,0 -4.58234,-0.70343 -5.41407,-1.53515 -0.83173,-0.83173 -1.5332,-2.30895 -1.5332,-5.41211 v -39.74024 h -21.12109 v 39.74024 c 0,3.10316 -0.70148,4.58038 -1.53321,5.41211 -0.83173,0.83172 -2.3109,1.53515 -5.41406,1.53515 -3.10316,0 -4.58038,-0.70343 -5.41211,-1.53515 -0.83173,-0.83173 -1.53515,-2.30895 -1.53516,-5.41211 v -39.74024 z m 9.44922,9.44922 h 2.22266 v 30.29102 c 0,4.67796 1.2439,9.03491 4.30273,12.09375 3.05884,3.05883 7.41579,4.30273 12.09375,4.30273 4.67796,0 9.03492,-1.2439 12.09375,-4.30273 3.05884,-3.05884 4.30273,-7.41579 4.30273,-12.09375 v -30.29102 h 2.22266 v 30.29102 c 0,4.67796 1.24195,9.03491 4.30078,12.09375 3.05884,3.05883 7.41774,4.30273 12.09571,4.30273 4.67796,0 9.03491,-1.2439 12.09375,-4.30273 3.05883,-3.05884 4.30273,-7.41579 4.30273,-12.09375 v -30.29102 h 2.22266 v 30.29102 c 0,6.99372 -1.67612,11.389 -4.45313,14.16601 -2.77701,2.77701 -7.17229,4.45313 -14.16601,4.45313 -6.99373,0 -11.39096,-1.67612 -14.16797,-4.45313 l -3.33985,-3.33984 -3.34179,3.33984 c -2.77701,2.77701 -7.17229,4.45313 -14.16602,4.45313 -6.99372,0 -11.38901,-1.67612 -14.16602,-4.45313 -2.777,-2.77701 -4.45312,-7.17229 -4.45312,-14.16601 z"
     id="path2334" /><path
     style="color:#000000;-inkscape-font-specification:'Hyper heliX';stroke:none;-inkscape-stroke:none"
     d="m 234.44719,236.59172 v -35.0151 h 11.6717 v 35.0151 q 0,11.6717 11.6717,11.6717 11.6717,0 11.6717,-11.6717 v -35.0151 h 11.6717 v 35.0151 q 0,23.3434 -23.3434,23.3434 -11.6717,0 -17.50755,-5.83585 -5.83585,5.83585 -17.50755,5.83585 -23.3434,0 -23.3434,-23.3434 v -35.0151 h 11.6717 v 35.0151 q 0,11.6717 11.6717,11.6717 11.6717,0 11.6717,-11.6717 z"
     id="path2336" /></g></g>
</svg>
