<svg xmlns="http://www.w3.org/2000/svg" viewBox="0 0 512 512" width="512" height="512"><defs><filter id="g40" x="-60%" y="-60%" width="220%" height="220%"><feGaussianBlur stdDeviation="40"/></filter><filter id="grain" x="-20%" y="-20%" width="140%" height="140%"><feTurbulence type="fractalNoise" baseFrequency="0.9" numOctaves="2" stitchTiles="stitch"/><feColorMatrix type="saturate" values="0"/><feComponentTransfer><feFuncA type="linear" slope="0" intercept="1"/></feComponentTransfer></filter><radialGradient id="sceneVig" cx="50%" cy="46%" r="78%"><stop offset="54%" stop-color="#020407" stop-opacity="0"/><stop offset="100%" stop-color="#020407" stop-opacity="0.34"/></radialGradient></defs><rect width="512" height="512" fill="#070812"/><circle cx="351.4" cy="152.9" r="1.89" fill="#ffffff" fill-opacity="0.65"/><circle cx="28.0" cy="254.5" r="0.66" fill="#ffffff" fill-opacity="0.75"/><circle cx="154.4" cy="207.2" r="1.58" fill="#ffffff" fill-opacity="0.44"/><circle cx="120.2" cy="110.4" r="1.17" fill="#ffffff" fill-opacity="0.27"/><circle cx="453.0" cy="336.9" r="1.14" fill="#ffffff" fill-opacity="0.77"/><circle cx="214.0" cy="452.9" r="0.82" fill="#ffffff" fill-opacity="0.35"/><circle cx="309.1" cy="442.1" r="0.97" fill="#ffffff" fill-opacity="0.71"/><circle cx="370.5" cy="81.2" r="0.68" fill="#ffffff" fill-opacity="0.73"/><circle cx="425.2" cy="72.5" r="1.92" fill="#ffffff" fill-opacity="0.43"/><circle cx="268.2" cy="267.9" r="1.32" fill="#ffffff" fill-opacity="0.35"/><circle cx="494.6" cy="387.7" r="0.65" fill="#ffffff" fill-opacity="0.75"/><circle cx="324.3" cy="83.0" r="1.55" fill="#ffffff" fill-opacity="0.33"/><circle cx="392.2" cy="72.8" r="0.58" fill="#ffffff" fill-opacity="0.86"/><circle cx="100.6" cy="54.8" r="1.50" fill="#ffffff" fill-opacity="0.67"/><circle cx="263.6" cy="334.8" r="0.67" fill="#ffffff" fill-opacity="0.81"/><circle cx="74.5" cy="462.2" r="1.24" fill="#ffffff" fill-opacity="0.85"/><circle cx="372.8" cy="248.1" r="1.64" fill="#ffffff" fill-opacity="0.41"/><circle cx="189.0" cy="314.0" r="1.47" fill="#ffffff" fill-opacity="0.89"/><circle cx="468.9" cy="120.8" r="1.94" fill="#ffffff" fill-opacity="0.26"/><circle cx="49.6" cy="74.2" r="1.90" fill="#ffffff" fill-opacity="0.48"/><circle cx="451.0" cy="12.3" r="1.80" fill="#ffffff" fill-opacity="0.38"/><circle cx="19.2" cy="188.4" r="1.44" fill="#ffffff" fill-opacity="0.81"/><circle cx="480.2" cy="117.5" r="1.10" fill="#ffffff" fill-opacity="0.28"/><circle cx="402.3" cy="20.9" r="1.31" fill="#ffffff" fill-opacity="0.47"/><circle cx="400.2" cy="343.5" r="0.58" fill="#ffffff" fill-opacity="0.26"/><circle cx="69.3" cy="47.7" r="0.81" fill="#ffffff" fill-opacity="0.80"/><circle cx="285.2" cy="136.6" r="0.79" fill="#ffffff" fill-opacity="0.30"/><circle cx="132.3" cy="184.6" r="0.57" fill="#ffffff" fill-opacity="0.64"/><circle cx="402.5" cy="272.2" r="0.54" fill="#ffffff" fill-opacity="0.49"/><circle cx="392.7" cy="51.0" r="0.57" fill="#ffffff" fill-opacity="0.48"/><circle cx="42.0" cy="422.1" r="1.92" fill="#ffffff" fill-opacity="0.57"/><circle cx="431.8" cy="210.1" r="1.03" fill="#ffffff" fill-opacity="0.50"/><circle cx="291.2" cy="337.4" r="0.62" fill="#ffffff" fill-opacity="0.84"/><circle cx="466.5" cy="143.8" r="1.43" fill="#ffffff" fill-opacity="0.74"/><circle cx="194.6" cy="84.1" r="0.80" fill="#ffffff" fill-opacity="0.30"/><circle cx="130.3" cy="439.3" r="1.69" fill="#ffffff" fill-opacity="0.64"/><circle cx="135.4" cy="381.9" r="0.85" fill="#ffffff" fill-opacity="0.88"/><circle cx="376.4" cy="314.7" r="1.94" fill="#ffffff" fill-opacity="0.47"/><circle cx="232.2" cy="12.3" r="1.02" fill="#ffffff" fill-opacity="0.31"/><circle cx="413.6" cy="491.7" r="1.29" fill="#ffffff" fill-opacity="0.44"/><circle cx="348.1" cy="190.7" r="0.56" fill="#ffffff" fill-opacity="0.30"/><circle cx="237.8" cy="457.9" r="0.76" fill="#ffffff" fill-opacity="0.41"/><circle cx="160.2" cy="405.3" r="1.30" fill="#ffffff" fill-opacity="0.69"/><circle cx="317.1" cy="342.9" r="1.70" fill="#ffffff" fill-opacity="0.31"/><circle cx="13.5" cy="268.6" r="0.87" fill="#ffffff" fill-opacity="0.36"/><circle cx="196.3" cy="357.6" r="1.51" fill="#ffffff" fill-opacity="0.83"/><circle cx="313.5" cy="471.3" r="1.20" fill="#ffffff" fill-opacity="0.62"/><circle cx="315.6" cy="316.1" r="0.69" fill="#ffffff" fill-opacity="0.63"/><circle cx="427.6" cy="227.3" r="1.26" fill="#ffffff" fill-opacity="0.88"/><circle cx="259.2" cy="341.5" r="1.72" fill="#ffffff" fill-opacity="0.68"/><circle cx="256.1" cy="116.9" r="0.89" fill="#ffffff" fill-opacity="0.69"/><circle cx="79.6" cy="177.6" r="1.20" fill="#ffffff" fill-opacity="0.85"/><circle cx="150.2" cy="25.1" r="1.24" fill="#ffffff" fill-opacity="0.56"/><circle cx="429.4" cy="25.7" r="1.15" fill="#ffffff" fill-opacity="0.52"/><circle cx="119.0" cy="275.5" r="0.95" fill="#ffffff" fill-opacity="0.37"/><circle cx="310.7" cy="398.3" r="1.28" fill="#ffffff" fill-opacity="0.89"/><circle cx="69.7" cy="35.5" r="1.91" fill="#ffffff" fill-opacity="0.75"/><circle cx="464.8" cy="174.9" r="0.74" fill="#ffffff" fill-opacity="0.87"/><circle cx="379.9" cy="325.1" r="1.21" fill="#ffffff" fill-opacity="0.44"/><circle cx="34.5" cy="100.7" r="1.56" fill="#ffffff" fill-opacity="0.37"/><g transform="rotate(-28 256 256)"><rect x="-100" y="196" width="712" height="120" fill="#8f7bd8" opacity="0.22" filter="url(#g40)"/><rect x="-100" y="226" width="712" height="56" fill="#e8dff8" opacity="0.16" filter="url(#g40)"/></g><circle cx="48.7" cy="162.8" r="0.77" fill="#ffffff" fill-opacity="0.48"/><circle cx="179.7" cy="331.9" r="0.63" fill="#ffffff" fill-opacity="0.29"/><circle cx="45.1" cy="160.9" r="1.06" fill="#ffffff" fill-opacity="0.66"/><circle cx="75.2" cy="382.0" r="1.52" fill="#ffffff" fill-opacity="0.51"/><circle cx="364.4" cy="423.0" r="0.98" fill="#ffffff" fill-opacity="0.89"/><circle cx="256.6" cy="241.3" r="1.48" fill="#ffffff" fill-opacity="0.82"/><circle cx="347.8" cy="159.4" r="1.39" fill="#ffffff" fill-opacity="0.78"/><circle cx="339.9" cy="120.6" r="0.88" fill="#ffffff" fill-opacity="0.37"/><circle cx="88.8" cy="67.0" r="0.62" fill="#ffffff" fill-opacity="0.54"/><circle cx="159.0" cy="178.8" r="1.51" fill="#ffffff" fill-opacity="0.75"/><circle cx="282.4" cy="432.4" r="0.94" fill="#ffffff" fill-opacity="0.58"/><circle cx="411.1" cy="211.2" r="0.62" fill="#ffffff" fill-opacity="0.55"/><circle cx="60.0" cy="264.4" r="1.17" fill="#ffffff" fill-opacity="0.75"/><circle cx="108.0" cy="62.4" r="1.59" fill="#ffffff" fill-opacity="0.75"/><circle cx="340.4" cy="104.6" r="0.59" fill="#ffffff" fill-opacity="0.32"/><circle cx="384.2" cy="124.0" r="0.86" fill="#ffffff" fill-opacity="0.64"/><circle cx="314.9" cy="193.4" r="0.82" fill="#ffffff" fill-opacity="0.61"/><circle cx="218.5" cy="111.9" r="0.64" fill="#ffffff" fill-opacity="0.65"/><circle cx="352.6" cy="128.1" r="0.52" fill="#ffffff" fill-opacity="0.28"/><circle cx="247.5" cy="278.2" r="1.41" fill="#ffffff" fill-opacity="0.33"/><circle cx="210.5" cy="219.9" r="0.88" fill="#ffffff" fill-opacity="0.75"/><circle cx="307.3" cy="425.9" r="1.07" fill="#ffffff" fill-opacity="0.39"/><circle cx="141.4" cy="188.0" r="0.64" fill="#ffffff" fill-opacity="0.61"/><circle cx="106.5" cy="411.4" r="1.49" fill="#ffffff" fill-opacity="0.32"/><circle cx="310.1" cy="109.3" r="1.59" fill="#ffffff" fill-opacity="0.86"/><circle cx="122.4" cy="419.3" r="1.27" fill="#ffffff" fill-opacity="0.88"/><circle cx="351.8" cy="353.9" r="1.24" fill="#ffffff" fill-opacity="0.52"/><circle cx="49.7" cy="323.5" r="1.51" fill="#ffffff" fill-opacity="0.42"/><circle cx="311.9" cy="432.1" r="1.40" fill="#ffffff" fill-opacity="0.86"/><circle cx="217.6" cy="274.6" r="0.81" fill="#ffffff" fill-opacity="0.29"/><circle cx="375.3" cy="226.8" r="1.07" fill="#ffffff" fill-opacity="0.43"/><circle cx="473.9" cy="105.3" r="0.93" fill="#ffffff" fill-opacity="0.31"/><circle cx="472.7" cy="230.9" r="1.07" fill="#ffffff" fill-opacity="0.45"/><circle cx="49.9" cy="431.9" r="0.51" fill="#ffffff" fill-opacity="0.26"/><circle cx="390.1" cy="287.4" r="0.60" fill="#ffffff" fill-opacity="0.57"/><circle cx="335.4" cy="143.7" r="0.93" fill="#ffffff" fill-opacity="0.29"/><circle cx="156.1" cy="269.3" r="1.43" fill="#ffffff" fill-opacity="0.61"/><circle cx="337.6" cy="272.8" r="0.50" fill="#ffffff" fill-opacity="0.76"/><circle cx="135.4" cy="420.4" r="1.39" fill="#ffffff" fill-opacity="0.53"/><circle cx="404.0" cy="251.2" r="0.52" fill="#ffffff" fill-opacity="0.29"/><circle cx="271.7" cy="367.8" r="0.81" fill="#ffffff" fill-opacity="0.39"/><circle cx="381.9" cy="221.3" r="1.13" fill="#ffffff" fill-opacity="0.44"/><circle cx="113.2" cy="401.9" r="1.17" fill="#ffffff" fill-opacity="0.78"/><circle cx="262.2" cy="173.3" r="1.37" fill="#ffffff" fill-opacity="0.55"/><circle cx="263.0" cy="228.9" r="1.56" fill="#ffffff" fill-opacity="0.69"/><circle cx="343.3" cy="244.4" r="1.02" fill="#ffffff" fill-opacity="0.31"/><circle cx="449.2" cy="343.6" r="1.45" fill="#ffffff" fill-opacity="0.36"/><circle cx="460.9" cy="273.5" r="1.02" fill="#ffffff" fill-opacity="0.49"/><circle cx="430.7" cy="405.4" r="1.27" fill="#ffffff" fill-opacity="0.61"/><circle cx="140.5" cy="413.3" r="0.94" fill="#ffffff" fill-opacity="0.25"/><circle cx="309.7" cy="255.5" r="0.71" fill="#ffffff" fill-opacity="0.55"/><circle cx="312.2" cy="108.3" r="1.24" fill="#ffffff" fill-opacity="0.62"/><circle cx="397.1" cy="239.1" r="1.33" fill="#ffffff" fill-opacity="0.51"/><circle cx="196.0" cy="166.0" r="0.71" fill="#ffffff" fill-opacity="0.70"/><circle cx="273.1" cy="198.7" r="0.82" fill="#ffffff" fill-opacity="0.60"/><circle cx="185.1" cy="362.2" r="0.65" fill="#ffffff" fill-opacity="0.25"/><circle cx="336.0" cy="163.5" r="1.53" fill="#ffffff" fill-opacity="0.88"/><circle cx="357.3" cy="393.5" r="1.47" fill="#ffffff" fill-opacity="0.64"/><circle cx="450.3" cy="138.5" r="1.30" fill="#ffffff" fill-opacity="0.28"/><circle cx="122.7" cy="259.7" r="1.22" fill="#ffffff" fill-opacity="0.32"/><circle cx="351.0" cy="146.4" r="1.29" fill="#ffffff" fill-opacity="0.39"/><circle cx="179.7" cy="68.6" r="1.31" fill="#ffffff" fill-opacity="0.77"/><circle cx="364.1" cy="346.7" r="1.07" fill="#ffffff" fill-opacity="0.65"/><circle cx="129.7" cy="392.8" r="0.57" fill="#ffffff" fill-opacity="0.79"/><circle cx="419.3" cy="344.5" r="1.08" fill="#ffffff" fill-opacity="0.69"/><circle cx="99.3" cy="122.9" r="1.14" fill="#ffffff" fill-opacity="0.89"/><circle cx="222.6" cy="390.5" r="0.72" fill="#ffffff" fill-opacity="0.63"/><circle cx="420.0" cy="224.2" r="0.59" fill="#ffffff" fill-opacity="0.29"/><circle cx="435.4" cy="368.6" r="1.54" fill="#ffffff" fill-opacity="0.87"/><circle cx="417.5" cy="218.9" r="0.71" fill="#ffffff" fill-opacity="0.37"/><circle cx="103.7" cy="328.3" r="0.56" fill="#ffffff" fill-opacity="0.42"/><circle cx="395.7" cy="353.7" r="1.55" fill="#ffffff" fill-opacity="0.81"/><circle cx="216.4" cy="199.3" r="1.17" fill="#ffffff" fill-opacity="0.84"/><circle cx="267.9" cy="265.1" r="0.95" fill="#ffffff" fill-opacity="0.82"/><circle cx="278.5" cy="72.2" r="0.70" fill="#ffffff" fill-opacity="0.29"/><circle cx="410.5" cy="181.6" r="1.01" fill="#ffffff" fill-opacity="0.40"/><circle cx="360.3" cy="390.6" r="0.86" fill="#ffffff" fill-opacity="0.34"/><circle cx="438.9" cy="356.4" r="0.61" fill="#ffffff" fill-opacity="0.73"/><circle cx="189.4" cy="251.0" r="1.12" fill="#ffffff" fill-opacity="0.67"/><circle cx="409.1" cy="262.7" r="1.32" fill="#ffffff" fill-opacity="0.31"/><circle cx="332.6" cy="287.2" r="0.71" fill="#ffffff" fill-opacity="0.71"/><circle cx="45.0" cy="91.0" r="0.81" fill="#ffffff" fill-opacity="0.53"/><circle cx="110.6" cy="384.0" r="1.26" fill="#ffffff" fill-opacity="0.48"/><circle cx="66.8" cy="101.0" r="1.07" fill="#ffffff" fill-opacity="0.56"/><circle cx="243.9" cy="226.1" r="0.67" fill="#ffffff" fill-opacity="0.86"/><circle cx="54.7" cy="401.5" r="1.40" fill="#ffffff" fill-opacity="0.42"/><circle cx="328.9" cy="227.7" r="1.03" fill="#ffffff" fill-opacity="0.57"/><circle cx="438.7" cy="136.9" r="0.81" fill="#ffffff" fill-opacity="0.87"/><circle cx="58.8" cy="263.2" r="1.37" fill="#ffffff" fill-opacity="0.47"/><circle cx="251.8" cy="77.6" r="1.47" fill="#ffffff" fill-opacity="0.27"/><circle cx="183.4" cy="159.3" r="1.56" fill="#ffffff" fill-opacity="0.25"/><circle cx="111.7" cy="209.6" r="0.72" fill="#ffffff" fill-opacity="0.89"/><circle cx="438.1" cy="427.6" r="0.64" fill="#ffffff" fill-opacity="0.52"/><circle cx="429.1" cy="339.6" r="1.30" fill="#ffffff" fill-opacity="0.63"/><circle cx="381.0" cy="370.1" r="0.72" fill="#ffffff" fill-opacity="0.32"/><circle cx="261.1" cy="85.4" r="1.16" fill="#ffffff" fill-opacity="0.90"/><circle cx="143.4" cy="68.7" r="1.01" fill="#ffffff" fill-opacity="0.68"/><circle cx="206.8" cy="125.9" r="1.24" fill="#ffffff" fill-opacity="0.35"/><circle cx="302.1" cy="393.8" r="0.91" fill="#ffffff" fill-opacity="0.49"/><circle cx="55.9" cy="313.1" r="1.33" fill="#ffffff" fill-opacity="0.61"/><circle cx="257.3" cy="403.9" r="0.70" fill="#ffffff" fill-opacity="0.43"/><circle cx="314.6" cy="305.3" r="1.18" fill="#ffffff" fill-opacity="0.51"/><circle cx="122.6" cy="67.4" r="0.81" fill="#ffffff" fill-opacity="0.47"/><circle cx="226.6" cy="200.3" r="1.08" fill="#ffffff" fill-opacity="0.73"/><circle cx="96.9" cy="78.2" r="1.06" fill="#ffffff" fill-opacity="0.39"/><circle cx="69.3" cy="355.4" r="1.54" fill="#ffffff" fill-opacity="0.50"/><circle cx="370.7" cy="100.2" r="1.21" fill="#ffffff" fill-opacity="0.45"/><circle cx="288.6" cy="175.8" r="0.83" fill="#ffffff" fill-opacity="0.28"/><circle cx="103.8" cy="82.4" r="0.51" fill="#ffffff" fill-opacity="0.85"/><circle cx="252.1" cy="361.8" r="1.48" fill="#ffffff" fill-opacity="0.78"/><circle cx="465.6" cy="148.6" r="0.58" fill="#ffffff" fill-opacity="0.65"/><circle cx="382.0" cy="336.0" r="1.09" fill="#ffffff" fill-opacity="0.39"/><circle cx="384.0" cy="146.7" r="1.30" fill="#ffffff" fill-opacity="0.84"/><circle cx="358.9" cy="158.7" r="1.44" fill="#ffffff" fill-opacity="0.35"/><circle cx="405.7" cy="403.0" r="1.05" fill="#ffffff" fill-opacity="0.75"/><circle cx="96.2" cy="357.1" r="1.57" fill="#ffffff" fill-opacity="0.69"/><circle cx="194.0" cy="319.0" r="0.83" fill="#ffffff" fill-opacity="0.37"/><circle cx="322.4" cy="176.9" r="0.67" fill="#ffffff" fill-opacity="0.80"/><circle cx="439.7" cy="159.1" r="1.26" fill="#ffffff" fill-opacity="0.41"/><circle cx="363.8" cy="316.8" r="1.36" fill="#ffffff" fill-opacity="0.80"/><circle cx="319.2" cy="301.6" r="0.79" fill="#ffffff" fill-opacity="0.55"/><circle cx="465.2" cy="344.3" r="0.67" fill="#ffffff" fill-opacity="0.32"/><circle cx="223.5" cy="234.3" r="1.50" fill="#ffffff" fill-opacity="0.69"/><circle cx="79.2" cy="87.4" r="0.73" fill="#ffffff" fill-opacity="0.31"/><circle cx="46.0" cy="156.8" r="0.50" fill="#ffffff" fill-opacity="0.43"/><circle cx="476.2" cy="370.9" r="0.83" fill="#ffffff" fill-opacity="0.29"/><circle cx="180.4" cy="216.5" r="0.93" fill="#ffffff" fill-opacity="0.30"/><circle cx="359.3" cy="264.6" r="0.71" fill="#ffffff" fill-opacity="0.56"/><circle cx="310.0" cy="312.3" r="0.50" fill="#ffffff" fill-opacity="0.82"/><circle cx="233.4" cy="118.1" r="0.69" fill="#ffffff" fill-opacity="0.60"/><circle cx="453.3" cy="328.0" r="1.15" fill="#ffffff" fill-opacity="0.62"/><circle cx="44.8" cy="269.0" r="0.63" fill="#ffffff" fill-opacity="0.81"/><circle cx="66.7" cy="64.6" r="1.49" fill="#ffffff" fill-opacity="0.68"/><circle cx="204.5" cy="250.9" r="1.35" fill="#ffffff" fill-opacity="0.35"/><circle cx="40.2" cy="81.2" r="1.27" fill="#ffffff" fill-opacity="0.52"/><circle cx="242.7" cy="366.5" r="0.75" fill="#ffffff" fill-opacity="0.68"/><circle cx="173.3" cy="428.3" r="0.96" fill="#ffffff" fill-opacity="0.40"/><circle cx="462.4" cy="118.9" r="1.03" fill="#ffffff" fill-opacity="0.53"/><circle cx="416.8" cy="99.8" r="1.09" fill="#ffffff" fill-opacity="0.29"/><circle cx="398.2" cy="423.6" r="1.41" fill="#ffffff" fill-opacity="0.77"/><circle cx="248.6" cy="152.0" r="0.69" fill="#ffffff" fill-opacity="0.71"/><circle cx="346.0" cy="88.5" r="0.99" fill="#ffffff" fill-opacity="0.74"/><circle cx="381.8" cy="63.8" r="0.78" fill="#ffffff" fill-opacity="0.72"/><circle cx="194.1" cy="182.0" r="0.60" fill="#ffffff" fill-opacity="0.53"/><circle cx="300.5" cy="292.2" r="1.16" fill="#ffffff" fill-opacity="0.90"/><circle cx="366.7" cy="134.7" r="1.29" fill="#ffffff" fill-opacity="0.35"/><circle cx="276.1" cy="246.6" r="0.99" fill="#ffffff" fill-opacity="0.60"/><circle cx="84.6" cy="155.3" r="0.72" fill="#ffffff" fill-opacity="0.43"/><circle cx="198.4" cy="372.9" r="1.51" fill="#ffffff" fill-opacity="0.62"/><circle cx="106.0" cy="93.6" r="0.53" fill="#ffffff" fill-opacity="0.34"/><circle cx="96" cy="400" r="3.08" fill="#f2e8ff"/><rect x="85" y="399.34" width="22" height="1.3199999999999998" rx="0.6599999999999999" fill="#f2e8ff" opacity="0.7"/><rect x="95.34" y="389" width="1.3199999999999998" height="22" rx="0.6599999999999999" fill="#f2e8ff" opacity="0.7"/><rect width="512" height="512" filter="url(#grain)" style="mix-blend-mode:overlay" opacity="0.1"/><rect width="512" height="512" fill="url(#sceneVig)"/></svg>