<svg xmlns="http://www.w3.org/2000/svg" viewBox="0 0 512 512" width="512" height="512"><defs><filter id="t30" x="-60%" y="-60%" width="220%" height="220%"><feGaussianBlur stdDeviation="30"/></filter><filter id="t10" x="-60%" y="-60%" width="220%" height="220%"><feGaussianBlur stdDeviation="10"/></filter><filter id="grain" x="-20%" y="-20%" width="140%" height="140%"><feTurbulence type="fractalNoise" baseFrequency="0.9" numOctaves="2" stitchTiles="stitch"/><feColorMatrix type="saturate" values="0"/><feComponentTransfer><feFuncA type="linear" slope="0" intercept="1"/></feComponentTransfer></filter><radialGradient id="sceneVig" cx="50%" cy="46%" r="78%"><stop offset="54%" stop-color="#020407" stop-opacity="0"/><stop offset="100%" stop-color="#020407" stop-opacity="0.34"/></radialGradient></defs><rect width="512" height="512" fill="#0c0a18"/><circle cx="352.7" cy="86.0" r="1.66" fill="#ffffff" fill-opacity="0.54"/><circle cx="78.6" cy="474.7" r="1.63" fill="#ffffff" fill-opacity="0.51"/><circle cx="482.0" cy="111.8" r="1.72" fill="#ffffff" fill-opacity="0.54"/><circle cx="396.9" cy="156.8" r="1.39" fill="#ffffff" fill-opacity="0.67"/><circle cx="433.7" cy="489.7" r="0.67" fill="#ffffff" fill-opacity="0.80"/><circle cx="344.5" cy="201.9" r="0.82" fill="#ffffff" fill-opacity="0.75"/><circle cx="322.7" cy="369.6" r="1.79" fill="#ffffff" fill-opacity="0.45"/><circle cx="97.1" cy="353.3" r="1.35" fill="#ffffff" fill-opacity="0.31"/><circle cx="461.5" cy="425.2" r="1.35" fill="#ffffff" fill-opacity="0.34"/><circle cx="407.5" cy="286.0" r="1.78" fill="#ffffff" fill-opacity="0.65"/><circle cx="157.1" cy="224.1" r="1.53" fill="#ffffff" fill-opacity="0.37"/><circle cx="350.6" cy="30.9" r="1.28" fill="#ffffff" fill-opacity="0.82"/><circle cx="138.8" cy="203.0" r="0.87" fill="#ffffff" fill-opacity="0.78"/><circle cx="314.4" cy="355.5" r="1.27" fill="#ffffff" fill-opacity="0.61"/><circle cx="483.5" cy="77.5" r="1.07" fill="#ffffff" fill-opacity="0.43"/><circle cx="226.6" cy="157.2" r="1.50" fill="#ffffff" fill-opacity="0.46"/><circle cx="494.3" cy="395.0" r="1.88" fill="#ffffff" fill-opacity="0.85"/><circle cx="264.0" cy="432.3" r="1.04" fill="#ffffff" fill-opacity="0.46"/><circle cx="53.2" cy="258.8" r="0.84" fill="#ffffff" fill-opacity="0.66"/><circle cx="417.6" cy="451.0" r="0.79" fill="#ffffff" fill-opacity="0.32"/><circle cx="113.1" cy="440.1" r="0.94" fill="#ffffff" fill-opacity="0.84"/><circle cx="103.7" cy="280.1" r="0.96" fill="#ffffff" fill-opacity="0.30"/><circle cx="91.6" cy="340.5" r="0.69" fill="#ffffff" fill-opacity="0.58"/><circle cx="111.0" cy="179.5" r="0.64" fill="#ffffff" fill-opacity="0.48"/><circle cx="377.7" cy="233.5" r="0.90" fill="#ffffff" fill-opacity="0.63"/><circle cx="175.8" cy="204.9" r="1.63" fill="#ffffff" fill-opacity="0.37"/><circle cx="237.5" cy="312.2" r="0.79" fill="#ffffff" fill-opacity="0.89"/><circle cx="131.7" cy="231.3" r="0.68" fill="#ffffff" fill-opacity="0.55"/><circle cx="116.6" cy="478.3" r="1.18" fill="#ffffff" fill-opacity="0.34"/><circle cx="255.4" cy="412.2" r="1.91" fill="#ffffff" fill-opacity="0.43"/><circle cx="291.0" cy="398.6" r="1.01" fill="#ffffff" fill-opacity="0.79"/><circle cx="408.0" cy="19.2" r="1.33" fill="#ffffff" fill-opacity="0.72"/><circle cx="487.9" cy="202.8" r="0.55" fill="#ffffff" fill-opacity="0.85"/><circle cx="17.1" cy="241.7" r="1.61" fill="#ffffff" fill-opacity="0.64"/><circle cx="354.0" cy="446.8" r="0.97" fill="#ffffff" fill-opacity="0.68"/><circle cx="144.8" cy="361.5" r="1.59" fill="#ffffff" fill-opacity="0.75"/><circle cx="31.3" cy="67.7" r="0.58" fill="#ffffff" fill-opacity="0.52"/><circle cx="464.0" cy="226.2" r="0.74" fill="#ffffff" fill-opacity="0.89"/><circle cx="437.3" cy="288.4" r="0.56" fill="#ffffff" fill-opacity="0.77"/><circle cx="357.0" cy="388.9" r="1.17" fill="#ffffff" fill-opacity="0.63"/><circle cx="271.6" cy="70.1" r="1.85" fill="#ffffff" fill-opacity="0.51"/><circle cx="62.8" cy="34.5" r="0.50" fill="#ffffff" fill-opacity="0.73"/><circle cx="347.5" cy="130.8" r="1.52" fill="#ffffff" fill-opacity="0.30"/><circle cx="17.3" cy="230.2" r="1.93" fill="#ffffff" fill-opacity="0.72"/><circle cx="337.2" cy="383.8" r="1.13" fill="#ffffff" fill-opacity="0.27"/><circle cx="199.3" cy="290.1" r="0.66" fill="#ffffff" fill-opacity="0.67"/><circle cx="462.5" cy="381.3" r="1.84" fill="#ffffff" fill-opacity="0.49"/><circle cx="313.6" cy="190.6" r="1.82" fill="#ffffff" fill-opacity="0.55"/><circle cx="156.7" cy="393.8" r="0.50" fill="#ffffff" fill-opacity="0.61"/><circle cx="423.5" cy="271.1" r="0.82" fill="#ffffff" fill-opacity="0.79"/><circle cx="110.8" cy="160.8" r="0.55" fill="#ffffff" fill-opacity="0.69"/><circle cx="341.5" cy="244.9" r="1.03" fill="#ffffff" fill-opacity="0.57"/><circle cx="143.4" cy="441.2" r="1.08" fill="#ffffff" fill-opacity="0.60"/><circle cx="415.4" cy="203.5" r="1.54" fill="#ffffff" fill-opacity="0.87"/><circle cx="72.4" cy="397.4" r="1.54" fill="#ffffff" fill-opacity="0.59"/><circle cx="64.1" cy="441.1" r="1.48" fill="#ffffff" fill-opacity="0.42"/><circle cx="247.2" cy="8.3" r="1.89" fill="#ffffff" fill-opacity="0.51"/><circle cx="435.8" cy="318.0" r="1.14" fill="#ffffff" fill-opacity="0.73"/><circle cx="234.4" cy="445.8" r="1.42" fill="#ffffff" fill-opacity="0.31"/><circle cx="387.2" cy="335.2" r="0.97" fill="#ffffff" fill-opacity="0.48"/><circle cx="369.5" cy="199.3" r="1.61" fill="#ffffff" fill-opacity="0.76"/><circle cx="61.4" cy="67.4" r="1.72" fill="#ffffff" fill-opacity="0.86"/><circle cx="13.0" cy="262.1" r="0.70" fill="#ffffff" fill-opacity="0.62"/><circle cx="320.9" cy="487.1" r="1.00" fill="#ffffff" fill-opacity="0.58"/><circle cx="153.3" cy="60.6" r="0.76" fill="#ffffff" fill-opacity="0.37"/><circle cx="467.3" cy="434.0" r="1.55" fill="#ffffff" fill-opacity="0.52"/><circle cx="19.4" cy="172.4" r="1.20" fill="#ffffff" fill-opacity="0.76"/><circle cx="439.6" cy="7.9" r="1.91" fill="#ffffff" fill-opacity="0.78"/><circle cx="282.7" cy="40.0" r="1.35" fill="#ffffff" fill-opacity="0.82"/><circle cx="64.8" cy="222.2" r="1.03" fill="#ffffff" fill-opacity="0.85"/><circle cx="408.2" cy="171.0" r="1.64" fill="#ffffff" fill-opacity="0.84"/><circle cx="216.9" cy="101.5" r="1.28" fill="#ffffff" fill-opacity="0.62"/><circle cx="167.1" cy="164.4" r="1.54" fill="#ffffff" fill-opacity="0.48"/><circle cx="422.9" cy="436.8" r="0.79" fill="#ffffff" fill-opacity="0.25"/><circle cx="56.6" cy="318.8" r="0.60" fill="#ffffff" fill-opacity="0.58"/><circle cx="492.1" cy="171.4" r="1.57" fill="#ffffff" fill-opacity="0.63"/><circle cx="101.6" cy="231.8" r="1.34" fill="#ffffff" fill-opacity="0.78"/><circle cx="338.9" cy="408.8" r="1.02" fill="#ffffff" fill-opacity="0.53"/><circle cx="123.9" cy="280.5" r="0.75" fill="#ffffff" fill-opacity="0.68"/><circle cx="162.8" cy="337.5" r="1.69" fill="#ffffff" fill-opacity="0.37"/><circle cx="170" cy="170" r="70" fill="#ff9e5e" opacity="0.35" filter="url(#t30)"/><circle cx="170" cy="170" r="22" fill="#ffd9ae" filter="url(#t10)"/><circle cx="170" cy="170" r="10" fill="#fff2e0"/><circle cx="368" cy="330" r="60" fill="#6f9eff" opacity="0.3" filter="url(#t30)"/><circle cx="368" cy="330" r="16" fill="#cfe0ff" filter="url(#t10)"/><circle cx="368" cy="330" r="7" fill="#ffffff"/><g transform="rotate(-32 256 256)" filter="url(#t30)"><rect x="-40" y="236" width="600" height="44" fill="#8a6fd0" opacity="0.14"/></g><rect width="512" height="512" filter="url(#grain)" style="mix-blend-mode:overlay" opacity="0.09"/><rect width="512" height="512" fill="url(#sceneVig)"/></svg>