<svg xmlns="http://www.w3.org/2000/svg" viewBox="0 0 512 512" width="512" height="512"><defs><linearGradient id="s" x1="0" y1="0" x2="0" y2="1"><stop offset="0%" stop-color="#e9eef3"/><stop offset="100%" stop-color="#c9d4dd"/></linearGradient><filter id="b18w" x="-60%" y="-60%" width="220%" height="220%"><feGaussianBlur stdDeviation="18"/></filter><filter id="grain" x="-20%" y="-20%" width="140%" height="140%"><feTurbulence type="fractalNoise" baseFrequency="0.9" numOctaves="2" stitchTiles="stitch"/><feColorMatrix type="saturate" values="0"/><feComponentTransfer><feFuncA type="linear" slope="0" intercept="1"/></feComponentTransfer></filter><radialGradient id="sceneVig" cx="50%" cy="46%" r="78%"><stop offset="54%" stop-color="#42505e" stop-opacity="0"/><stop offset="100%" stop-color="#42505e" stop-opacity="0.18"/></radialGradient></defs><rect width="512" height="512" fill="url(#s)"/><g opacity="0.3"><g opacity="1"><rect x="120" y="0" width="14" height="512" fill="#f2efe6"/><rect x="120" y="0" width="3.4" height="512" fill="#cfcaba"/><rect x="120" y="74" width="8.4" height="5" rx="2.5" fill="#3a3d3a" fill-opacity="0.6"/><rect x="120" y="184" width="8.4" height="5" rx="2.5" fill="#3a3d3a" fill-opacity="0.6"/><rect x="120" y="304" width="8.4" height="5" rx="2.5" fill="#3a3d3a" fill-opacity="0.6"/><rect x="120" y="414" width="8.4" height="5" rx="2.5" fill="#3a3d3a" fill-opacity="0.6"/></g><g opacity="1"><rect x="300" y="0" width="12" height="512" fill="#f2efe6"/><rect x="300" y="0" width="2.9" height="512" fill="#cfcaba"/><rect x="300" y="95" width="7.2" height="5" rx="2.5" fill="#3a3d3a" fill-opacity="0.6"/><rect x="300" y="205" width="7.2" height="5" rx="2.5" fill="#3a3d3a" fill-opacity="0.6"/><rect x="300" y="325" width="7.2" height="5" rx="2.5" fill="#3a3d3a" fill-opacity="0.6"/><rect x="300" y="435" width="7.2" height="5" rx="2.5" fill="#3a3d3a" fill-opacity="0.6"/></g><g opacity="1"><rect x="420" y="0" width="16" height="512" fill="#f2efe6"/><rect x="420" y="0" width="3.8" height="512" fill="#cfcaba"/><rect x="420" y="109" width="9.6" height="5" rx="2.5" fill="#3a3d3a" fill-opacity="0.6"/><rect x="420" y="219" width="9.6" height="5" rx="2.5" fill="#3a3d3a" fill-opacity="0.6"/><rect x="420" y="339" width="9.6" height="5" rx="2.5" fill="#3a3d3a" fill-opacity="0.6"/><rect x="420" y="449" width="9.6" height="5" rx="2.5" fill="#3a3d3a" fill-opacity="0.6"/></g></g><rect x="0" y="180" width="512" height="150" fill="#e4eaf0" opacity="0.6" filter="url(#b18w)"/><g opacity="1"><rect x="48" y="0" width="26" height="512" fill="#f2efe6"/><rect x="48" y="0" width="6.2" height="512" fill="#cfcaba"/><rect x="48" y="108" width="15.6" height="5" rx="2.5" fill="#3a3d3a" fill-opacity="0.6"/><rect x="48" y="218" width="15.6" height="5" rx="2.5" fill="#3a3d3a" fill-opacity="0.6"/><rect x="48" y="338" width="15.6" height="5" rx="2.5" fill="#3a3d3a" fill-opacity="0.6"/><rect x="48" y="448" width="15.6" height="5" rx="2.5" fill="#3a3d3a" fill-opacity="0.6"/></g><g opacity="0.92"><rect x="214" y="0" width="20" height="512" fill="#f2efe6"/><rect x="214" y="0" width="4.8" height="512" fill="#cfcaba"/><rect x="214" y="62" width="12.0" height="5" rx="2.5" fill="#3a3d3a" fill-opacity="0.6"/><rect x="214" y="172" width="12.0" height="5" rx="2.5" fill="#3a3d3a" fill-opacity="0.6"/><rect x="214" y="292" width="12.0" height="5" rx="2.5" fill="#3a3d3a" fill-opacity="0.6"/><rect x="214" y="402" width="12.0" height="5" rx="2.5" fill="#3a3d3a" fill-opacity="0.6"/></g><g opacity="1"><rect x="452" y="0" width="30" height="512" fill="#f2efe6"/><rect x="452" y="0" width="7.2" height="512" fill="#cfcaba"/><rect x="452" y="88" width="18.0" height="5" rx="2.5" fill="#3a3d3a" fill-opacity="0.6"/><rect x="452" y="198" width="18.0" height="5" rx="2.5" fill="#3a3d3a" fill-opacity="0.6"/><rect x="452" y="318" width="18.0" height="5" rx="2.5" fill="#3a3d3a" fill-opacity="0.6"/><rect x="452" y="428" width="18.0" height="5" rx="2.5" fill="#3a3d3a" fill-opacity="0.6"/></g><path d="M0 452 Q 256 434 512 450 L 512 512 L 0 512 Z" fill="#f4f7fa"/><circle cx="317" cy="436" r="2.9" fill="#ffffff" fill-opacity="0.76"/><circle cx="135" cy="245" r="3.5" fill="#ffffff" fill-opacity="0.62"/><circle cx="105" cy="304" r="4.2" fill="#ffffff" fill-opacity="0.76"/><circle cx="328" cy="480" r="2.0" fill="#ffffff" fill-opacity="0.52"/><circle cx="268" cy="8" r="3.3" fill="#ffffff" fill-opacity="0.73"/><circle cx="365" cy="226" r="2.6" fill="#ffffff" fill-opacity="0.77"/><circle cx="494" cy="499" r="2.1" fill="#ffffff" fill-opacity="0.58"/><circle cx="134" cy="151" r="3.1" fill="#ffffff" fill-opacity="0.58"/><circle cx="466" cy="343" r="2.4" fill="#ffffff" fill-opacity="0.65"/><circle cx="77" cy="281" r="3.8" fill="#ffffff" fill-opacity="0.41"/><circle cx="213" cy="485" r="2.6" fill="#ffffff" fill-opacity="0.51"/><circle cx="432" cy="231" r="1.7" fill="#ffffff" fill-opacity="0.45"/><circle cx="260" cy="490" r="3.2" fill="#ffffff" fill-opacity="0.63"/><circle cx="143" cy="326" r="3.2" fill="#ffffff" fill-opacity="0.69"/><circle cx="340" cy="175" r="1.9" fill="#ffffff" fill-opacity="0.47"/><circle cx="471" cy="438" r="2.1" fill="#ffffff" fill-opacity="0.72"/><circle cx="306" cy="479" r="3.5" fill="#ffffff" fill-opacity="0.56"/><circle cx="188" cy="201" r="3.5" fill="#ffffff" fill-opacity="0.41"/><circle cx="88" cy="83" r="4.2" fill="#ffffff" fill-opacity="0.74"/><circle cx="486" cy="442" r="3.0" fill="#ffffff" fill-opacity="0.78"/><circle cx="213" cy="266" r="2.5" fill="#ffffff" fill-opacity="0.48"/><circle cx="87" cy="473" r="2.2" fill="#ffffff" fill-opacity="0.44"/><rect width="512" height="512" filter="url(#grain)" style="mix-blend-mode:overlay" opacity="0.06"/><rect width="512" height="512" fill="url(#sceneVig)"/></svg>