<?xml version="1.0" encoding="UTF-8" standalone="no"?>
<svg
   id="Layer_2"
   data-name="Layer 2"
   viewBox="0 0 259.5 300.34"
   version="1.1"
   sodipodi:docname="branch-overlay.svg"
   inkscape:version="1.1.2 (b8e25be833, 2022-02-05)"
   xmlns:inkscape="http://www.inkscape.org/namespaces/inkscape"
   xmlns:sodipodi="http://sodipodi.sourceforge.net/DTD/sodipodi-0.dtd"
   xmlns="http://www.w3.org/2000/svg"
   xmlns:svg="http://www.w3.org/2000/svg">
  <sodipodi:namedview
     id="namedview1137"
     pagecolor="#505050"
     bordercolor="#eeeeee"
     borderopacity="1"
     inkscape:pageshadow="0"
     inkscape:pageopacity="0"
     inkscape:pagecheckerboard="0"
     showgrid="false"
     inkscape:zoom="2.6015616"
     inkscape:cx="-64.576599"
     inkscape:cy="225.8259"
     inkscape:window-width="3440"
     inkscape:window-height="1346"
     inkscape:window-x="-11"
     inkscape:window-y="-11"
     inkscape:window-maximized="1"
     inkscape:current-layer="Layer_2" />
  <defs
     id="defs1131">
    <style
       id="style1129">
      .cls-1, .cls-2 {
        fill: #05285b;
        stroke-width: 0px;
      }

      .cls-2 {
        isolation: isolate;
        opacity: .6;
      }
    </style>
    <filter
       inkscape:label="In and Out"
       inkscape:menu="Shadows and Glows"
       inkscape:menu-tooltip="Inner colorized shadow, outer black shadow"
       style="color-interpolation-filters:sRGB;"
       id="filter261755"
       x="-0.043889935"
       y="-0.038185579"
       width="1.1095076"
       height="1.0952755">
      <feGaussianBlur
         result="result0"
         stdDeviation="4"
         id="feGaussianBlur261749"
         in="SourceAlpha" />
      <feOffset
         dx="5"
         dy="5"
         result="result4"
         id="feOffset261751" />
      <feComposite
         in="SourceGraphic"
         in2="result4"
         operator="xor"
         result="result3"
         id="feComposite261753" />
    </filter>
  </defs>
  <rect
     style="fill:none;paint-order:stroke fill markers;stop-color:#000000"
     id="rect167580"
     width="505.85004"
     height="478.94312"
     x="-123.77181"
     y="-82.258286"
     ry="0.91646099" />
  <path
     id="path13879"
     class="cls-1"
     d="m -0.07128812,-0.27726683 c -0.190597,0 -0.34179688,0.14949987 -0.34179688,0.33984375 V 300.27546 c 0,0.19034 0.15119988,0.3418 0.34179688,0.3418 H 259.57129 c 0.1906,0 0.3418,-0.15146 0.3418,-0.3418 V 0.06257692 c 0,-0.19034388 -0.1512,-0.33984375 -0.3418,-0.33984375 z m 129.72264812,0.0449219 65.00586,37.53320296 65.00587,37.529297 -0.004,75.062495 0.004,75.0625 -65.00587,37.5293 -65.00586,37.53516 -65.005851,-37.53516 -65.00585962,-37.5293 0.001953,-75.0625 -0.001953,-75.062495 L 64.645509,37.300858 Z"
     style="opacity:0.95;fill:#0d1f30;fill-opacity:0.989343" />
  <path
     id="path1738"
     style="opacity:0.80168776;fill:#ffffff;stroke:none;stroke-width:6.78158;stroke-linejoin:round;paint-order:markers fill stroke;stop-color:#000000;fill-opacity:1"
     d="M 129.75,0.04499567 64.744142,37.576246 l -65.00585981,37.53125 0.003906,75.060544 -0.003906,75.0625 65.00585981,37.5293 65.005858,37.53516 65.00586,-37.53516 65.00586,-37.5293 -0.002,-75.0625 0.002,-75.060544 -65.00586,-37.53125 z m 0,16.66210933 57.78711,33.369141 57.79297,33.363281 -0.002,66.728513 0.002,66.73242 -57.79297,33.35938 -57.78711,33.36914 -57.787108,-33.36914 -57.792969,-33.35938 0.002,-66.73242 -0.002,-66.728513 57.792969,-33.363281 z" />
  <text
     xml:space="preserve"
     style="font-size:64px;line-height:1.25;font-family:'Baloo 2';-inkscape-font-specification:'Baloo 2, ';text-align:center;text-anchor:middle;fill:none"
     x="129.71797"
     y="169.53"
     id="name-text"><tspan
       sodipodi:role="line"
       id="tspan4716"
       x="129.71797"
       y="169.53">A</tspan></text>
  <path
     style="color:#000000;fill:#ffffff;stroke-linejoin:round;-inkscape-stroke:none;paint-order:markers fill stroke;opacity:0.7;stroke:#808080;filter:url(#filter261755);fill-opacity:1"
     d="M 127.76367,18.457031 72.222656,50.527344 16.675781,82.59375 a 3.9738473,3.9738473 0 0 0 -1.986328,3.441406 l 0.002,64.134764 -0.002,64.13867 a 3.9738473,3.9738473 0 0 0 1.986328,3.44141 l 55.546875,32.0625 55.541014,32.07031 a 3.9738473,3.9738473 0 0 0 3.97266,0 L 187.27734,249.8125 242.82422,217.75 a 3.9738473,3.9738473 0 0 0 1.98633,-3.44141 l -0.002,-64.13867 0.002,-64.134764 A 3.9738473,3.9738473 0 0 0 242.82422,82.59375 L 187.27734,50.527344 131.73633,18.457031 a 3.9738473,3.9738473 0 0 0 -3.97266,0 z m 1.98633,8.027344 53.55469,30.925781 53.55859,30.919922 -0.002,61.839842 0.002,61.84375 -53.55859,30.91602 -53.55469,30.92383 -53.554688,-30.92383 -53.558593,-30.91602 0.002,-61.84375 -0.002,-61.839842 53.558593,-30.919922 z"
     id="path167675" />
</svg>
