<?xml version="1.0" encoding="UTF-8" standalone="no"?>
<!-- Created with Inkscape (http://www.inkscape.org/) -->

<svg
   width="50.728428mm"
   height="50.225498mm"
   viewBox="0 0 50.728428 50.225498"
   version="1.1"
   id="svg8728"
   inkscape:version="1.1.2 (b8e25be833, 2022-02-05)"
   sodipodi:docname="google-icon.svg"
   xmlns:inkscape="http://www.inkscape.org/namespaces/inkscape"
   xmlns:sodipodi="http://sodipodi.sourceforge.net/DTD/sodipodi-0.dtd"
   xmlns="http://www.w3.org/2000/svg"
   xmlns:svg="http://www.w3.org/2000/svg">
  <sodipodi:namedview
     id="namedview8730"
     pagecolor="#505050"
     bordercolor="#eeeeee"
     borderopacity="1"
     inkscape:pageshadow="0"
     inkscape:pageopacity="0"
     inkscape:pagecheckerboard="0"
     inkscape:document-units="mm"
     showgrid="false"
     inkscape:zoom="1.5554293"
     inkscape:cx="-51.432746"
     inkscape:cy="-18.64437"
     inkscape:window-width="3440"
     inkscape:window-height="1346"
     inkscape:window-x="-11"
     inkscape:window-y="-11"
     inkscape:window-maximized="1"
     inkscape:current-layer="layer1" />
  <defs
     id="defs8725" />
  <g
     inkscape:label="Layer 1"
     inkscape:groupmode="layer"
     id="layer1"
     transform="translate(-52.542645,-93.959415)">
    <path
       id="path2216"
       style="fill:#000000;stroke-width:0.264583"
       d="m 82.399578,93.959989 c -2.89091,-0.02005 -5.91045,0.48442 -8.37158,1.469676 -5.84812,2.341161 -10.86495,8.053065 -12.55531,14.294735 -0.79971,2.95295 -0.80102,7.64036 -0.003,10.46758 0.68809,2.43676 1.78213,4.88762 2.91817,6.5381 l 0.81958,1.19063 -6.04975,6.08541 c -3.32734,3.34698 -6.18133,6.34531 -6.34225,6.66316 -0.49471,0.97712 -0.33053,1.68589 0.6072,2.62361 0.92222,0.92223 1.81856,1.11782 2.93676,0.64027 0.29105,-0.12429 3.25419,-2.96246 6.58513,-6.30659 l 6.05648,-6.07973 1.25626,0.90227 c 3.31244,2.37975 7.42159,3.63492 11.89901,3.63492 3.48958,0 5.68774,-0.4648 8.68888,-1.83813 9.981092,-4.56738 14.866332,-15.95906 11.222572,-26.16894 -2.295172,-6.43109 -8.069712,-11.717343 -14.752082,-13.504606 -1.49357,-0.399471 -3.18194,-0.60034 -4.91649,-0.612365 z m 0.11059,6.542751 c 1.02971,0.0151 2.09102,0.0723 2.6324,0.1633 1.27174,0.21384 3.226,0.76218 3.77961,1.06092 0.1029,0.0555 0.38917,0.19276 0.63614,0.30489 0.6309,0.28642 1.62184,0.87803 2.28255,1.36219 0.65618,0.48084 1.95539,1.7652 2.3027,2.27634 0.13283,0.19552 0.33861,0.49841 0.45734,0.67335 0.47852,0.70512 1.18548,2.22812 1.09915,2.36781 -0.0499,0.0808 -0.42573,0.218 -1.22215,0.44649 -0.29883,0.0857 -0.77057,0.22127 -1.04799,0.30127 -0.69255,0.19974 -1.55252,0.44699 -2.00091,0.57464 -0.20579,0.0586 -0.59284,0.17095 -0.86042,0.25012 -1.11236,0.32915 -1.23849,0.36127 -1.30999,0.33279 -0.0412,-0.0164 -0.25989,-0.32102 -0.48628,-0.67696 -0.45288,-0.71205 -1.27153,-1.59986 -1.79886,-1.9513 -0.28882,-0.1925 -0.61316,-0.35565 -1.53169,-0.76998 -0.0823,-0.0371 -0.31397,-0.10302 -0.51469,-0.14624 -0.20072,-0.0432 -0.42437,-0.1104 -0.49713,-0.14935 -0.25071,-0.13417 -2.0531,-0.22322 -3.021,-0.14934 -1.08104,0.0825 -1.65281,0.24173 -2.71457,0.75602 -2.22653,1.07852 -3.79408,3.17745 -4.27054,5.718 -0.17769,0.94761 -0.20482,2.34872 -0.0599,3.10214 0.41665,2.16654 1.45009,3.9866 2.90783,5.12061 0.33623,0.26158 0.71266,0.53181 0.83613,0.60048 0.12349,0.0687 0.35935,0.19966 0.52399,0.29094 0.82274,0.45616 1.75407,0.72427 2.91662,0.83974 3.19535,0.31738 5.82348,-0.81765 7.3856,-3.18998 0.65257,-0.99102 0.87067,-1.54561 0.65991,-1.67587 -0.0419,-0.0259 -1.86859,-0.0473 -4.0597,-0.0481 -3.50869,-0.001 -3.99964,-0.0157 -4.115,-0.11885 -0.12011,-0.10746 -0.13074,-0.33868 -0.13074,-2.78795 0,-2.49257 0.009,-2.6796 0.13694,-2.79518 0.12541,-0.1135 0.7599,-0.1235 7.59334,-0.1235 7.34471,0 7.45765,0.002 7.53545,0.14727 0.0434,0.0812 0.0992,0.83035 0.12403,1.66502 0.0626,2.10696 -0.0716,3.53165 -0.46096,4.88549 -0.0592,0.2058 -0.14033,0.49207 -0.17983,0.63614 -0.0813,0.29658 -0.27631,0.86119 -0.37517,1.0852 -0.24432,0.55365 -0.80044,1.67787 -0.90692,1.83348 -0.0704,0.1029 -0.31524,0.47334 -0.54364,0.82321 -0.44688,0.68455 -1.58345,2.0082 -2.00194,2.33112 -0.14127,0.109 -0.34049,0.27733 -0.44235,0.37414 -0.34819,0.3309 -1.90069,1.37549 -2.32183,1.56218 -0.10289,0.0456 -0.42295,0.19388 -0.71106,0.32918 -0.72953,0.34255 -1.02253,0.45335 -1.79576,0.67799 -0.37046,0.10763 -0.77499,0.2268 -0.89865,0.2651 -0.12366,0.0383 -0.49408,0.10512 -0.82321,0.14831 -0.32909,0.0432 -0.74958,0.10915 -0.93482,0.14676 -0.44733,0.0908 -2.02413,0.12805 -2.95641,0.0698 -1.62319,-0.10147 -2.99398,-0.39561 -4.67362,-1.00355 -1.48189,-0.53637 -3.63884,-1.92231 -4.90668,-3.15227 -1.32496,-1.28537 -2.55728,-3.07515 -3.21324,-4.66741 -0.11022,-0.26755 -0.24882,-0.59273 -0.30799,-0.72244 -0.0592,-0.1297 -0.10749,-0.27862 -0.10749,-0.33124 0,-0.0526 -0.0637,-0.29997 -0.14159,-0.54984 -0.80061,-2.56718 -0.77015,-5.59075 0.0847,-8.45685 0.085,-0.28513 0.19951,-0.60517 0.25477,-0.71107 0.0553,-0.1059 0.10102,-0.23761 0.10128,-0.293 0,-0.0554 0.0494,-0.18995 0.10955,-0.29921 0.0601,-0.10925 0.21415,-0.41768 0.3421,-0.68523 0.35755,-0.74777 0.43986,-0.89346 0.84905,-1.49706 0.94678,-1.39658 1.86126,-2.40468 2.97914,-3.28404 1.20703,-0.94949 1.23893,-0.97042 2.60553,-1.70894 0.18522,-0.1001 0.53903,-0.26446 0.786,-0.36535 0.24696,-0.1009 0.49949,-0.2097 0.5612,-0.24185 0.27232,-0.14178 2.05995,-0.65798 2.50683,-0.72399 0.16464,-0.0243 0.57459,-0.0953 0.91105,-0.15761 0.41579,-0.077 1.41407,-0.10398 2.44378,-0.0889 z" />
  </g>
</svg>
