<svg xmlns="http://www.w3.org/2000/svg" viewBox="0 0 512 512" width="512" height="512"><defs><filter id="brush" x="-10%" y="-10%" width="120%" height="120%"><feTurbulence type="fractalNoise" baseFrequency="0.06" numOctaves="3" result="n" seed="7"/><feDisplacementMap in="SourceGraphic" in2="n" scale="9"/></filter><filter id="ib14" x="-60%" y="-60%" width="220%" height="220%"><feGaussianBlur stdDeviation="14"/></filter><filter id="grain" x="-20%" y="-20%" width="140%" height="140%"><feTurbulence type="fractalNoise" baseFrequency="0.9" numOctaves="2" stitchTiles="stitch"/><feColorMatrix type="saturate" values="0"/><feComponentTransfer><feFuncA type="linear" slope="0" intercept="1"/></feComponentTransfer></filter><radialGradient id="sceneVig" cx="50%" cy="46%" r="78%"><stop offset="54%" stop-color="#6e6450" stop-opacity="0"/><stop offset="100%" stop-color="#6e6450" stop-opacity="0.14"/></radialGradient></defs><rect width="512" height="512" fill="#ebe4d2"/><g filter="url(#brush)"><path d="M-20 300 Q 100 170 210 286 Q 260 336 330 276 Q 420 200 532 296 L 532 348 L -20 348 Z" fill="#8a8f8e" opacity="0.5"/><path d="M-20 356 Q 140 250 280 340 Q 380 400 532 330 L 532 400 L -20 400 Z" fill="#5c6266" opacity="0.65"/><path d="M-20 430 Q 180 360 350 420 Q 450 452 532 428 L 532 480 L -20 480 Z" fill="#3a3f42" opacity="0.8"/></g><rect x="0" y="336" width="512" height="30" fill="#ebe4d2" opacity="0.8" filter="url(#ib14)"/><rect x="436" y="60" width="24" height="24" rx="3" fill="#b8422e" opacity="0.85"/><rect x="442" y="66" width="12" height="12" fill="none" stroke="#ebe4d2" stroke-width="2"/><rect width="512" height="512" filter="url(#grain)" style="mix-blend-mode:overlay" opacity="0.07"/><rect width="512" height="512" fill="url(#sceneVig)"/></svg>